<svg width="40" height="32" viewBox="0 0 40 32" fill="none" xmlns="http://www.w3.org/2000/svg">
<path d="M10.1722 14.0173C10.1722 14.3281 10.2585 14.5707 10.4312 14.7451C10.6118 14.9194 10.8631 15.0066 11.185 15.0066H13.3637V17.0536C13.3637 17.3568 13.4461 17.5956 13.611 17.77C13.7837 17.9444 14.0232 18.0316 14.3294 18.0316C14.6278 18.0316 14.8633 17.9444 15.036 17.77C15.2088 17.5956 15.2951 17.3568 15.2951 17.0536V15.0066H17.3325C17.678 15.0066 17.9449 14.9194 18.1334 14.7451C18.3296 14.5707 18.4278 14.3281 18.4278 14.0173C18.4278 13.7216 18.3296 13.4904 18.1334 13.3236C17.9449 13.1492 17.678 13.062 17.3325 13.062H15.2951V11.0151C15.2951 10.7118 15.2088 10.4768 15.036 10.31C14.8633 10.1356 14.6278 10.0484 14.3294 10.0484C14.0232 10.0484 13.7837 10.1356 13.611 10.31C13.4461 10.4768 13.3637 10.7118 13.3637 11.0151V13.062H11.185C10.8631 13.062 10.6118 13.1492 10.4312 13.3236C10.2585 13.4904 10.1722 13.7216 10.1722 14.0173ZM27.5549 13.9035C28.0495 13.9035 28.4696 13.7368 28.815 13.4032C29.1605 13.0696 29.3332 12.6678 29.3332 12.1977C29.3332 11.7201 29.1605 11.3145 28.815 10.9809C28.4696 10.6474 28.0495 10.4806 27.5549 10.4806C27.0681 10.4806 26.6481 10.6474 26.2948 10.9809C25.9493 11.3145 25.7766 11.7201 25.7766 12.1977C25.7766 12.6678 25.9493 13.0696 26.2948 13.4032C26.6481 13.7368 27.0681 13.9035 27.5549 13.9035ZM23.9865 17.372C24.4733 17.372 24.8894 17.209 25.2348 16.883C25.5882 16.5494 25.7648 16.1438 25.7648 15.6662C25.7648 15.1962 25.5882 14.7943 25.2348 14.4608C24.8894 14.1196 24.4733 13.949 23.9865 13.949C23.4997 13.949 23.0797 14.1196 22.7264 14.4608C22.3809 14.7943 22.2082 15.1962 22.2082 15.6662C22.2082 16.1438 22.3809 16.5494 22.7264 16.883C23.0797 17.209 23.4997 17.372 23.9865 17.372ZM7.48701 26.6061C6.59196 26.6061 5.80684 26.4241 5.13162 26.0602C4.45641 25.7039 3.93038 25.1959 3.55352 24.5364C3.18451 23.8768 3 23.1035 3 22.2165C3 21.6479 3.06281 21.0376 3.18843 20.3856C3.3219 19.7336 3.50248 19.0399 3.73017 18.3045C3.96571 17.5236 4.25621 16.6745 4.60166 15.7572C4.94712 14.8398 5.31613 13.9149 5.70869 12.9824C6.10911 12.0423 6.50953 11.1629 6.90994 10.3441C7.24755 9.66178 7.56552 9.09318 7.86387 8.6383C8.16222 8.18342 8.53908 7.81194 8.99446 7.52385C9.45768 7.23576 10.1054 7.00074 10.9377 6.81878C12.0447 6.57618 13.3598 6.37907 14.8829 6.22744C16.4139 6.07581 18.1216 6 20.0059 6C21.8902 6 23.5939 6.07581 25.1171 6.22744C26.6402 6.37907 27.9553 6.57618 29.0623 6.81878C29.8946 7.00074 30.5384 7.23576 30.9938 7.52385C31.457 7.81194 31.8378 8.18342 32.1361 8.6383C32.4345 9.09318 32.7525 9.66178 33.0901 10.3441C33.4905 11.1629 33.887 12.0423 34.2795 12.9824C34.6799 13.9149 35.0529 14.8398 35.3983 15.7572C35.7438 16.6745 36.0343 17.5236 36.2698 18.3045C36.4975 19.0399 36.6742 19.7336 36.7998 20.3856C36.9333 21.0376 37 21.6479 37 22.2165C37 23.1035 36.8116 23.8768 36.4347 24.5364C36.0657 25.1959 35.5436 25.7039 34.8684 26.0602C34.1932 26.4241 33.408 26.6061 32.513 26.6061C31.7043 26.6061 31.0055 26.462 30.4167 26.1739C29.8357 25.8858 29.2979 25.4461 28.8033 24.8548L26.6716 22.3643C26.5146 22.1824 26.3497 22.0497 26.177 21.9663C26.0043 21.8829 25.8315 21.8412 25.6588 21.8412H14.3412C14.1685 21.8412 13.9957 21.8829 13.823 21.9663C13.6503 22.0497 13.4854 22.1824 13.3284 22.3643L11.1967 24.8548C10.7021 25.4461 10.1604 25.8858 9.57153 26.1739C8.99053 26.462 8.29569 26.6061 7.48701 26.6061Z" fill="#939393"/>
</svg>
