<svg width="74" height="56" viewBox="0 0 74 56" fill="none" xmlns="http://www.w3.org/2000/svg">
<g clip-path="url(#clip0_114_1285)">
<path d="M0 0H74L0 74V0Z" fill="url(#paint0_linear_114_1285)"/>
<mask id="path-2-outside-1_114_1285" maskUnits="userSpaceOnUse" x="16.1213" y="15.1213" width="27.5772" height="27.5772" fill="black">
<rect fill="white" x="16.1213" y="15.1213" width="27.5772" height="27.5772"/>
<path d="M25.9815 40.6165L18.6955 33.766L20.0814 32.3801L23.9719 36.2112C24.2161 36.4554 24.4867 36.7392 24.7836 37.0626C25.0806 37.3727 25.3446 37.6697 25.5756 37.9535L25.6152 37.9139C25.4502 37.5641 25.2786 37.188 25.1004 36.7854C24.9156 36.3762 24.7638 36.0264 24.6451 35.736L22.4672 29.9943L23.7739 28.6876L27.8327 32.5484C27.9515 32.654 28.0967 32.7992 28.2683 32.984C28.4465 33.1622 28.6346 33.3569 28.8325 33.568C29.0239 33.7726 29.2021 33.9706 29.3671 34.162L29.4067 34.1224C29.2813 33.8782 29.1559 33.6208 29.0305 33.3503C28.8985 33.0731 28.7731 32.8025 28.6544 32.5385C28.5356 32.2613 28.4333 32.0204 28.3475 31.8158L26.0904 26.3711L27.5852 24.8763L31.5252 35.0728L29.8522 36.7458L26.5557 33.6076C26.2587 33.3239 26.0145 33.0929 25.8231 32.9147C25.6317 32.7233 25.4601 32.5517 25.3083 32.3999C25.1565 32.2481 25.0014 32.0864 24.843 31.9148L24.8034 31.9544C24.9816 32.3042 25.1433 32.6441 25.2885 32.9741C25.4403 33.2975 25.5789 33.6208 25.7043 33.9442L27.6149 38.9831L25.9815 40.6165ZM33.9433 32.6546L29.6866 26.1012L31.1418 24.6459L35.3986 31.1994L33.9433 32.6546ZM29.9736 24.4677C29.7691 24.6723 29.5513 24.8043 29.3203 24.8637C29.0893 24.9099 28.8649 24.8241 28.6471 24.6063C28.4623 24.4215 28.3402 24.2335 28.2808 24.0421C28.228 23.8441 28.2346 23.6461 28.3006 23.4481C28.3666 23.2501 28.492 23.0587 28.6768 22.8739C28.8682 22.6825 29.0794 22.5571 29.3104 22.4977C29.5414 22.4383 29.7658 22.5175 29.9835 22.7353C30.2409 22.9927 30.3762 23.2732 30.3894 23.5768C30.4092 23.8738 30.2706 24.1708 29.9736 24.4677ZM36.9289 29.669L32.6721 23.1156L33.7809 22.0068L34.6817 23.1057L34.7213 23.0661C34.6421 22.7097 34.6025 22.3665 34.6025 22.0365C34.6091 21.6999 34.6685 21.3832 34.7807 21.0862C34.8929 20.7892 35.0744 20.5153 35.3252 20.2645C35.6354 19.9543 35.9588 19.7629 36.2954 19.6904C36.6319 19.6046 36.9652 19.6277 37.2952 19.7596C37.6318 19.885 37.9585 20.1061 38.2753 20.4229C38.3941 20.5417 38.5194 20.6869 38.6514 20.8585C38.7768 21.0235 38.9055 21.205 39.0375 21.403L41.4728 25.1252L40.0176 26.5804L37.5229 22.7592C37.4371 22.6206 37.3546 22.4985 37.2754 22.3929C37.1896 22.2807 37.1071 22.185 37.0279 22.1058C36.8233 21.9012 36.6286 21.7989 36.4439 21.7989C36.2591 21.7857 36.0809 21.8649 35.9093 22.0365C35.6915 22.2543 35.5892 22.548 35.6024 22.9176C35.609 23.2806 35.7047 23.6864 35.8895 24.1352C36.0809 24.5774 36.3251 25.0328 36.622 25.5014L38.3842 28.2138L36.9289 29.669Z"/>
</mask>
<path d="M25.9815 40.6165L18.6955 33.766L20.0814 32.3801L23.9719 36.2112C24.2161 36.4554 24.4867 36.7392 24.7836 37.0626C25.0806 37.3727 25.3446 37.6697 25.5756 37.9535L25.6152 37.9139C25.4502 37.5641 25.2786 37.188 25.1004 36.7854C24.9156 36.3762 24.7638 36.0264 24.6451 35.736L22.4672 29.9943L23.7739 28.6876L27.8327 32.5484C27.9515 32.654 28.0967 32.7992 28.2683 32.984C28.4465 33.1622 28.6346 33.3569 28.8325 33.568C29.0239 33.7726 29.2021 33.9706 29.3671 34.162L29.4067 34.1224C29.2813 33.8782 29.1559 33.6208 29.0305 33.3503C28.8985 33.0731 28.7731 32.8025 28.6544 32.5385C28.5356 32.2613 28.4333 32.0204 28.3475 31.8158L26.0904 26.3711L27.5852 24.8763L31.5252 35.0728L29.8522 36.7458L26.5557 33.6076C26.2587 33.3239 26.0145 33.0929 25.8231 32.9147C25.6317 32.7233 25.4601 32.5517 25.3083 32.3999C25.1565 32.2481 25.0014 32.0864 24.843 31.9148L24.8034 31.9544C24.9816 32.3042 25.1433 32.6441 25.2885 32.9741C25.4403 33.2975 25.5789 33.6208 25.7043 33.9442L27.6149 38.9831L25.9815 40.6165ZM33.9433 32.6546L29.6866 26.1012L31.1418 24.6459L35.3986 31.1994L33.9433 32.6546ZM29.9736 24.4677C29.7691 24.6723 29.5513 24.8043 29.3203 24.8637C29.0893 24.9099 28.8649 24.8241 28.6471 24.6063C28.4623 24.4215 28.3402 24.2335 28.2808 24.0421C28.228 23.8441 28.2346 23.6461 28.3006 23.4481C28.3666 23.2501 28.492 23.0587 28.6768 22.8739C28.8682 22.6825 29.0794 22.5571 29.3104 22.4977C29.5414 22.4383 29.7658 22.5175 29.9835 22.7353C30.2409 22.9927 30.3762 23.2732 30.3894 23.5768C30.4092 23.8738 30.2706 24.1708 29.9736 24.4677ZM36.9289 29.669L32.6721 23.1156L33.7809 22.0068L34.6817 23.1057L34.7213 23.0661C34.6421 22.7097 34.6025 22.3665 34.6025 22.0365C34.6091 21.6999 34.6685 21.3832 34.7807 21.0862C34.8929 20.7892 35.0744 20.5153 35.3252 20.2645C35.6354 19.9543 35.9588 19.7629 36.2954 19.6904C36.6319 19.6046 36.9652 19.6277 37.2952 19.7596C37.6318 19.885 37.9585 20.1061 38.2753 20.4229C38.3941 20.5417 38.5194 20.6869 38.6514 20.8585C38.7768 21.0235 38.9055 21.205 39.0375 21.403L41.4728 25.1252L40.0176 26.5804L37.5229 22.7592C37.4371 22.6206 37.3546 22.4985 37.2754 22.3929C37.1896 22.2807 37.1071 22.185 37.0279 22.1058C36.8233 21.9012 36.6286 21.7989 36.4439 21.7989C36.2591 21.7857 36.0809 21.8649 35.9093 22.0365C35.6915 22.2543 35.5892 22.548 35.6024 22.9176C35.609 23.2806 35.7047 23.6864 35.8895 24.1352C36.0809 24.5774 36.3251 25.0328 36.622 25.5014L38.3842 28.2138L36.9289 29.669Z" fill="url(#paint1_linear_114_1285)"/>
<path d="M25.9815 40.6165L25.2965 41.345L26.0029 42.0092L26.6886 41.3236L25.9815 40.6165ZM18.6955 33.766L17.9884 33.0589L17.2591 33.7882L18.0105 34.4946L18.6955 33.766ZM20.0814 32.3801L20.783 31.6676L20.076 30.9713L19.3743 31.673L20.0814 32.3801ZM23.9719 36.2112L24.679 35.5041L24.6735 35.4987L23.9719 36.2112ZM24.7836 37.0626L24.0471 37.739L24.0542 37.7466L24.0613 37.7541L24.7836 37.0626ZM25.5756 37.9535L24.8 38.5848L25.4994 39.444L26.2827 38.6606L25.5756 37.9535ZM25.6152 37.9139L26.3223 38.621L26.8198 38.1236L26.5196 37.4873L25.6152 37.9139ZM25.1004 36.7854L26.0149 36.3806L26.0118 36.3738L25.1004 36.7854ZM24.6451 35.736L23.7101 36.0907L23.7146 36.1027L23.7195 36.1147L24.6451 35.736ZM22.4672 29.9943L21.7601 29.2872L21.3029 29.7444L21.5322 30.349L22.4672 29.9943ZM23.7739 28.6876L24.4631 27.963L23.7564 27.2908L23.0668 27.9805L23.7739 28.6876ZM27.8327 32.5484L27.1435 33.273L27.1557 33.2846L27.1683 33.2958L27.8327 32.5484ZM28.2683 32.984L27.5355 33.6644L27.5481 33.678L27.5612 33.6911L28.2683 32.984ZM28.8325 33.568L29.5628 32.8849L29.5621 32.8841L28.8325 33.568ZM29.3671 34.162L28.6097 34.815L29.3128 35.6305L30.0742 34.8691L29.3671 34.162ZM29.4067 34.1224L30.1138 34.8295L30.6293 34.3141L30.2963 33.6656L29.4067 34.1224ZM29.0305 33.3503L29.9379 32.9298L29.9334 32.9203L29.0305 33.3503ZM28.6544 32.5385L27.7352 32.9324L27.7387 32.9407L27.7424 32.9489L28.6544 32.5385ZM28.3475 31.8158L27.4237 32.1988L27.4253 32.2026L28.3475 31.8158ZM26.0904 26.3711L25.3833 25.664L24.9107 26.1366L25.1666 26.7541L26.0904 26.3711ZM27.5852 24.8763L28.518 24.5158L27.9643 23.083L26.8781 24.1692L27.5852 24.8763ZM31.5252 35.0728L32.2323 35.7799L32.6926 35.3196L32.458 34.7123L31.5252 35.0728ZM29.8522 36.7458L29.1627 37.4701L29.8694 38.1428L30.5593 37.4529L29.8522 36.7458ZM26.5557 33.6076L25.8648 34.3306L25.8662 34.3319L26.5557 33.6076ZM25.8231 32.9147L25.116 33.6218L25.1286 33.6344L25.1417 33.6466L25.8231 32.9147ZM24.843 31.9148L25.5778 31.2365L24.8719 30.4718L24.1359 31.2077L24.843 31.9148ZM24.8034 31.9544L24.0963 31.2473L23.5826 31.761L23.9124 32.4083L24.8034 31.9544ZM25.2885 32.9741L24.3732 33.3768L24.3781 33.388L24.3833 33.399L25.2885 32.9741ZM25.7043 33.9442L26.6394 33.5897L26.6367 33.5827L25.7043 33.9442ZM27.6149 38.9831L28.322 39.6902L28.7792 39.233L28.5499 38.6285L27.6149 38.9831ZM26.6665 39.8879L19.3805 33.0375L18.0105 34.4946L25.2965 41.345L26.6665 39.8879ZM19.4026 34.4731L20.7885 33.0872L19.3743 31.673L17.9884 33.0589L19.4026 34.4731ZM19.3797 33.0926L23.2702 36.9237L24.6735 35.4987L20.783 31.6676L19.3797 33.0926ZM23.2648 36.9183C23.4967 37.1502 23.7573 37.4234 24.0471 37.739L25.5202 36.3862C25.216 36.055 24.9355 35.7606 24.679 35.5041L23.2648 36.9183ZM24.0613 37.7541C24.3429 38.0482 24.5886 38.325 24.8 38.5848L26.3512 37.3222C26.1006 37.0145 25.8184 36.6973 25.506 36.371L24.0613 37.7541ZM26.2827 38.6606L26.3223 38.621L24.9081 37.2068L24.8685 37.2464L26.2827 38.6606ZM26.5196 37.4873C26.3585 37.1457 26.1902 36.7769 26.0149 36.3806L24.186 37.1901C24.367 37.5991 24.5419 37.9826 24.7108 38.3405L26.5196 37.4873ZM26.0118 36.3738C25.83 35.9713 25.6834 35.6331 25.5706 35.3574L23.7195 36.1147C23.8443 36.4197 24.0013 36.7811 24.1891 37.197L26.0118 36.3738ZM25.5801 35.3814L23.4022 29.6397L21.5322 30.349L23.7101 36.0907L25.5801 35.3814ZM23.1743 30.7014L24.481 29.3947L23.0668 27.9805L21.7601 29.2872L23.1743 30.7014ZM23.0847 29.4121L27.1435 33.273L28.5219 31.8238L24.4631 27.963L23.0847 29.4121ZM27.1683 33.2958C27.2536 33.3716 27.3746 33.4912 27.5355 33.6644L29.0011 32.3035C28.8187 32.1072 28.6493 31.9363 28.4971 31.801L27.1683 33.2958ZM27.5612 33.6911C27.7307 33.8607 27.9113 34.0475 28.103 34.252L29.5621 32.8841C29.3578 32.6662 29.1622 32.4637 28.9754 32.2769L27.5612 33.6911ZM28.1023 34.2512C28.2854 34.4469 28.4544 34.6348 28.6097 34.815L30.1245 33.5091C29.9498 33.3064 29.7625 33.0983 29.5628 32.8849L28.1023 34.2512ZM30.0742 34.8691L30.1138 34.8295L28.6996 33.4153L28.66 33.4549L30.0742 34.8691ZM30.2963 33.6656C30.1775 33.4344 30.058 33.1892 29.9378 32.9298L28.1232 33.7707C28.2538 34.0525 28.3851 34.3221 28.5171 34.5792L30.2963 33.6656ZM29.9334 32.9203C29.8043 32.6492 29.6819 32.3852 29.5663 32.1281L27.7424 32.9489C27.8643 33.2198 27.9928 33.4969 28.1277 33.7802L29.9334 32.9203ZM29.5735 32.1446C29.4554 31.869 29.3542 31.6306 29.2697 31.4291L27.4253 32.2026C27.5124 32.4102 27.6157 32.6536 27.7352 32.9324L29.5735 32.1446ZM29.2712 31.4329L27.0142 25.9882L25.1666 26.7541L27.4237 32.1988L29.2712 31.4329ZM26.7975 27.0782L28.2923 25.5834L26.8781 24.1692L25.3833 25.664L26.7975 27.0782ZM26.6524 25.2367L30.5924 35.4332L32.458 34.7123L28.518 24.5158L26.6524 25.2367ZM30.8181 34.3657L29.1451 36.0387L30.5593 37.4529L32.2323 35.7799L30.8181 34.3657ZM30.5417 36.0215L27.2452 32.8833L25.8662 34.3319L29.1627 37.4701L30.5417 36.0215ZM27.2465 32.8846C26.9479 32.5993 26.7003 32.3651 26.5045 32.1828L25.1417 33.6466C25.3287 33.8206 25.5694 34.0484 25.8648 34.3306L27.2465 32.8846ZM26.5302 32.2076C26.5298 32.2072 26.5295 32.2068 26.5291 32.2064C26.5287 32.2061 26.5283 32.2057 26.528 32.2053C26.5276 32.205 26.5272 32.2046 26.5268 32.2042C26.5265 32.2038 26.5261 32.2035 26.5257 32.2031C26.5253 32.2027 26.525 32.2023 26.5246 32.202C26.5242 32.2016 26.5239 32.2012 26.5235 32.2008C26.5231 32.2005 26.5227 32.2001 26.5224 32.1997C26.522 32.1994 26.5216 32.199 26.5212 32.1986C26.5209 32.1982 26.5205 32.1979 26.5201 32.1975C26.5198 32.1971 26.5194 32.1967 26.519 32.1964C26.5186 32.196 26.5183 32.1956 26.5179 32.1953C26.5175 32.1949 26.5172 32.1945 26.5168 32.1941C26.5164 32.1938 26.516 32.1934 26.5157 32.193C26.5153 32.1927 26.5149 32.1923 26.5145 32.1919C26.5142 32.1915 26.5138 32.1912 26.5134 32.1908C26.5131 32.1904 26.5127 32.1901 26.5123 32.1897C26.5119 32.1893 26.5116 32.1889 26.5112 32.1886C26.5108 32.1882 26.5105 32.1878 26.5101 32.1875C26.5097 32.1871 26.5093 32.1867 26.509 32.1863C26.5086 32.186 26.5082 32.1856 26.5079 32.1852C26.5075 32.1849 26.5071 32.1845 26.5068 32.1841C26.5064 32.1837 26.506 32.1834 26.5056 32.183C26.5053 32.1826 26.5049 32.1823 26.5045 32.1819C26.5042 32.1815 26.5038 32.1812 26.5034 32.1808C26.503 32.1804 26.5027 32.18 26.5023 32.1797C26.5019 32.1793 26.5016 32.1789 26.5012 32.1786C26.5008 32.1782 26.5005 32.1778 26.5001 32.1775C26.4997 32.1771 26.4994 32.1767 26.499 32.1763C26.4986 32.176 26.4982 32.1756 26.4979 32.1752C26.4975 32.1749 26.4971 32.1745 26.4968 32.1741C26.4964 32.1738 26.496 32.1734 26.4957 32.173C26.4953 32.1727 26.4949 32.1723 26.4945 32.1719C26.4942 32.1715 26.4938 32.1712 26.4934 32.1708C26.4931 32.1704 26.4927 32.1701 26.4923 32.1697C26.492 32.1693 26.4916 32.169 26.4912 32.1686C26.4909 32.1682 26.4905 32.1679 26.4901 32.1675C26.4898 32.1671 26.4894 32.1668 26.489 32.1664C26.4887 32.166 26.4883 32.1656 26.4879 32.1653C26.4875 32.1649 26.4872 32.1645 26.4868 32.1642C26.4864 32.1638 26.4861 32.1634 26.4857 32.1631C26.4853 32.1627 26.485 32.1623 26.4846 32.162C26.4842 32.1616 26.4839 32.1612 26.4835 32.1609C26.4831 32.1605 26.4828 32.1601 26.4824 32.1598C26.482 32.1594 26.4817 32.159 26.4813 32.1587C26.4809 32.1583 26.4806 32.1579 26.4802 32.1576C26.4798 32.1572 26.4795 32.1568 26.4791 32.1565C26.4787 32.1561 26.4784 32.1557 26.478 32.1554C26.4776 32.155 26.4773 32.1546 26.4769 32.1543C26.4765 32.1539 26.4762 32.1535 26.4758 32.1532C26.4754 32.1528 26.4751 32.1524 26.4747 32.1521C26.4743 32.1517 26.474 32.1513 26.4736 32.151C26.4732 32.1506 26.4729 32.1502 26.4725 32.1499C26.4721 32.1495 26.4718 32.1491 26.4714 32.1488C26.471 32.1484 26.4707 32.148 26.4703 32.1477C26.4699 32.1473 26.4696 32.1469 26.4692 32.1466C26.4688 32.1462 26.4685 32.1458 26.4681 32.1455C26.4677 32.1451 26.4674 32.1447 26.467 32.1444C26.4667 32.144 26.4663 32.1437 26.4659 32.1433C26.4656 32.1429 26.4652 32.1426 26.4648 32.1422C26.4645 32.1418 26.4641 32.1415 26.4637 32.1411C26.4634 32.1407 26.463 32.1404 26.4626 32.14C26.4623 32.1396 26.4619 32.1393 26.4615 32.1389C26.4612 32.1385 26.4608 32.1382 26.4605 32.1378C26.4601 32.1375 26.4597 32.1371 26.4594 32.1367C26.459 32.1364 26.4586 32.136 26.4583 32.1356C26.4579 32.1353 26.4575 32.1349 26.4572 32.1345C26.4568 32.1342 26.4564 32.1338 26.4561 32.1334C26.4557 32.1331 26.4554 32.1327 26.455 32.1324C26.4546 32.132 26.4543 32.1316 26.4539 32.1313C26.4535 32.1309 26.4532 32.1305 26.4528 32.1302C26.4525 32.1298 26.4521 32.1295 26.4517 32.1291C26.4514 32.1287 26.451 32.1284 26.4506 32.128C26.4503 32.1276 26.4499 32.1273 26.4495 32.1269C26.4492 32.1265 26.4488 32.1262 26.4485 32.1258C26.4481 32.1255 26.4477 32.1251 26.4474 32.1247C26.447 32.1244 26.4466 32.124 26.4463 32.1236C26.4459 32.1233 26.4456 32.1229 26.4452 32.1226C26.4448 32.1222 26.4445 32.1218 26.4441 32.1215C26.4437 32.1211 26.4434 32.1208 26.443 32.1204C26.4427 32.12 26.4423 32.1197 26.4419 32.1193C26.4416 32.1189 26.4412 32.1186 26.4409 32.1182C26.4405 32.1179 26.4401 32.1175 26.4398 32.1171C26.4394 32.1168 26.439 32.1164 26.4387 32.116C26.4383 32.1157 26.438 32.1153 26.4376 32.115C26.4372 32.1146 26.4369 32.1142 26.4365 32.1139C26.4362 32.1135 26.4358 32.1132 26.4354 32.1128C26.4351 32.1124 26.4347 32.1121 26.4344 32.1117C26.434 32.1114 26.4336 32.111 26.4333 32.1106C26.4329 32.1103 26.4326 32.1099 26.4322 32.1096C26.4318 32.1092 26.4315 32.1088 26.4311 32.1085C26.4307 32.1081 26.4304 32.1078 26.43 32.1074C26.4297 32.107 26.4293 32.1067 26.4289 32.1063C26.4286 32.106 26.4282 32.1056 26.4279 32.1052C26.4275 32.1049 26.4272 32.1045 26.4268 32.1042C26.4264 32.1038 26.4261 32.1034 26.4257 32.1031C26.4254 32.1027 26.425 32.1024 26.4246 32.102C26.4243 32.1016 26.4239 32.1013 26.4236 32.1009C26.4232 32.1006 26.4228 32.1002 26.4225 32.0998C26.4221 32.0995 26.4218 32.0991 26.4214 32.0988C26.421 32.0984 26.4207 32.098 26.4203 32.0977C26.42 32.0973 26.4196 32.097 26.4192 32.0966C26.4189 32.0963 26.4185 32.0959 26.4182 32.0955C26.4178 32.0952 26.4175 32.0948 26.4171 32.0945C26.4167 32.0941 26.4164 32.0937 26.416 32.0934C26.4157 32.093 26.4153 32.0927 26.415 32.0923C26.4146 32.092 26.4142 32.0916 26.4139 32.0912C26.4135 32.0909 26.4132 32.0905 26.4128 32.0902C26.4124 32.0898 26.4121 32.0895 26.4117 32.0891C26.4114 32.0887 26.411 32.0884 26.4107 32.088C26.4103 32.0877 26.4099 32.0873 26.4096 32.087C26.4092 32.0866 26.4089 32.0862 26.4085 32.0859C26.4082 32.0855 26.4078 32.0852 26.4074 32.0848C26.4071 32.0845 26.4067 32.0841 26.4064 32.0837C26.406 32.0834 26.4057 32.083 26.4053 32.0827C26.4049 32.0823 26.4046 32.082 26.4042 32.0816C26.4039 32.0812 26.4035 32.0809 26.4032 32.0805C26.4028 32.0802 26.4025 32.0798 26.4021 32.0795C26.4017 32.0791 26.4014 32.0787 26.401 32.0784C26.4007 32.078 26.4003 32.0777 26.4 32.0773C26.3996 32.077 26.3992 32.0766 26.3989 32.0763C26.3985 32.0759 26.3982 32.0755 26.3978 32.0752C26.3975 32.0748 26.3971 32.0745 26.3968 32.0741C26.3964 32.0738 26.3961 32.0734 26.3957 32.0731C26.3953 32.0727 26.395 32.0723 26.3946 32.072C26.3943 32.0716 26.3939 32.0713 26.3936 32.0709C26.3932 32.0706 26.3929 32.0702 26.3925 32.0699C26.3921 32.0695 26.3918 32.0692 26.3914 32.0688C26.3911 32.0684 26.3907 32.0681 26.3904 32.0677C26.39 32.0674 26.3897 32.067 26.3893 32.0667C26.389 32.0663 26.3886 32.066 26.3882 32.0656C26.3879 32.0653 26.3875 32.0649 26.3872 32.0645C26.3868 32.0642 26.3865 32.0638 26.3861 32.0635C26.3858 32.0631 26.3854 32.0628 26.3851 32.0624C26.3847 32.0621 26.3844 32.0617 26.384 32.0614C26.3836 32.061 26.3833 32.0607 26.3829 32.0603C26.3826 32.06 26.3822 32.0596 26.3819 32.0592C26.3815 32.0589 26.3812 32.0585 26.3808 32.0582C26.3805 32.0578 26.3801 32.0575 26.3798 32.0571C26.3794 32.0568 26.3791 32.0564 26.3787 32.0561C26.3783 32.0557 26.378 32.0554 26.3776 32.055C26.3773 32.0547 26.3769 32.0543 26.3766 32.054C26.3762 32.0536 26.3759 32.0532 26.3755 32.0529C26.3752 32.0525 26.3748 32.0522 26.3745 32.0518C26.3741 32.0515 26.3738 32.0511 26.3734 32.0508C26.3731 32.0504 26.3727 32.0501 26.3724 32.0497C26.372 32.0494 26.3717 32.049 26.3713 32.0487C26.371 32.0483 26.3706 32.048 26.3702 32.0476C26.3699 32.0473 26.3695 32.0469 26.3692 32.0466C26.3688 32.0462 26.3685 32.0459 26.3681 32.0455C26.3678 32.0452 26.3674 32.0448 26.3671 32.0445C26.3667 32.0441 26.3664 32.0437 26.366 32.0434C26.3657 32.043 26.3653 32.0427 26.365 32.0423C26.3646 32.042 26.3643 32.0416 26.3639 32.0413C26.3636 32.0409 26.3632 32.0406 26.3629 32.0402C26.3625 32.0399 26.3622 32.0395 26.3618 32.0392C26.3615 32.0388 26.3611 32.0385 26.3608 32.0381C26.3604 32.0378 26.3601 32.0374 26.3597 32.0371C26.3594 32.0367 26.359 32.0364 26.3587 32.036C26.3583 32.0357 26.358 32.0353 26.3576 32.035C26.3573 32.0346 26.3569 32.0343 26.3566 32.0339C26.3562 32.0336 26.3559 32.0332 26.3555 32.0329C26.3552 32.0325 26.3548 32.0322 26.3545 32.0318C26.3541 32.0315 26.3538 32.0311 26.3534 32.0308C26.3531 32.0304 26.3527 32.0301 26.3524 32.0297C26.352 32.0294 26.3517 32.029 26.3513 32.0287C26.351 32.0284 26.3506 32.028 26.3503 32.0277C26.3499 32.0273 26.3496 32.027 26.3492 32.0266C26.3489 32.0263 26.3485 32.0259 26.3482 32.0256C26.3478 32.0252 26.3475 32.0249 26.3472 32.0245C26.3468 32.0242 26.3465 32.0238 26.3461 32.0235C26.3458 32.0231 26.3454 32.0228 26.3451 32.0224C26.3447 32.0221 26.3444 32.0217 26.344 32.0214C26.3437 32.021 26.3433 32.0207 26.343 32.0203C26.3426 32.02 26.3423 32.0196 26.3419 32.0193C26.3416 32.019 26.3412 32.0186 26.3409 32.0183C26.3405 32.0179 26.3402 32.0176 26.3398 32.0172C26.3395 32.0169 26.3392 32.0165 26.3388 32.0162C26.3385 32.0158 26.3381 32.0155 26.3378 32.0151C26.3374 32.0148 26.3371 32.0144 26.3367 32.0141C26.3364 32.0137 26.336 32.0134 26.3357 32.0131C26.3353 32.0127 26.335 32.0124 26.3346 32.012C26.3343 32.0117 26.334 32.0113 26.3336 32.011C26.3333 32.0106 26.3329 32.0103 26.3326 32.0099C26.3322 32.0096 26.3319 32.0092 26.3315 32.0089C26.3312 32.0085 26.3308 32.0082 26.3305 32.0079C26.3301 32.0075 26.3298 32.0072 26.3295 32.0068C26.3291 32.0065 26.3288 32.0061 26.3284 32.0058C26.3281 32.0054 26.3277 32.0051 26.3274 32.0047C26.327 32.0044 26.3267 32.0041 26.3263 32.0037C26.326 32.0034 26.3257 32.003 26.3253 32.0027C26.325 32.0023 26.3246 32.002 26.3243 32.0016C26.3239 32.0013 26.3236 32.0009 26.3232 32.0006C26.3229 32.0003 26.3226 31.9999 26.3222 31.9996C26.3219 31.9992 26.3215 31.9989 26.3212 31.9985C26.3208 31.9982 26.3205 31.9978 26.3201 31.9975C26.3198 31.9972 26.3195 31.9968 26.3191 31.9965C26.3188 31.9961 26.3184 31.9958 26.3181 31.9954C26.3177 31.9951 26.3174 31.9948 26.317 31.9944C26.3167 31.9941 26.3164 31.9937 26.316 31.9934C26.3157 31.993 26.3153 31.9927 26.315 31.9923C26.3146 31.992 26.3143 31.9917 26.314 31.9913C26.3136 31.991 26.3133 31.9906 26.3129 31.9903C26.3126 31.9899 26.3122 31.9896 26.3119 31.9893C26.3115 31.9889 26.3112 31.9886 26.3109 31.9882C26.3105 31.9879 26.3102 31.9875 26.3098 31.9872C26.3095 31.9869 26.3091 31.9865 26.3088 31.9862C26.3085 31.9858 26.3081 31.9855 26.3078 31.9851C26.3074 31.9848 26.3071 31.9845 26.3067 31.9841C26.3064 31.9838 26.3061 31.9834 26.3057 31.9831C26.3054 31.9827 26.305 31.9824 26.3047 31.9821C26.3044 31.9817 26.304 31.9814 26.3037 31.981C26.3033 31.9807 26.303 31.9803 26.3026 31.98C26.3023 31.9797 26.302 31.9793 26.3016 31.979C26.3013 31.9786 26.3009 31.9783 26.3006 31.978C26.3003 31.9776 26.2999 31.9773 26.2996 31.9769C26.2992 31.9766 26.2989 31.9763 26.2985 31.9759C26.2982 31.9756 26.2979 31.9752 26.2975 31.9749C26.2972 31.9745 26.2968 31.9742 26.2965 31.9739C26.2962 31.9735 26.2958 31.9732 26.2955 31.9728C26.2951 31.9725 26.2948 31.9722 26.2945 31.9718C26.2941 31.9715 26.2938 31.9711 26.2934 31.9708C26.2931 31.9705 26.2928 31.9701 26.2924 31.9698C26.2921 31.9694 26.2917 31.9691 26.2914 31.9688C26.2911 31.9684 26.2907 31.9681 26.2904 31.9677C26.29 31.9674 26.2897 31.9671 26.2894 31.9667C26.289 31.9664 26.2887 31.966 26.2883 31.9657C26.288 31.9654 26.2877 31.965 26.2873 31.9647C26.287 31.9643 26.2866 31.964 26.2863 31.9637C26.286 31.9633 26.2856 31.963 26.2853 31.9626C26.2849 31.9623 26.2846 31.962 26.2843 31.9616C26.2839 31.9613 26.2836 31.9609 26.2832 31.9606C26.2829 31.9603 26.2826 31.9599 26.2822 31.9596C26.2819 31.9593 26.2815 31.9589 26.2812 31.9586C26.2809 31.9582 26.2805 31.9579 26.2802 31.9576C26.2799 31.9572 26.2795 31.9569 26.2792 31.9565C26.2788 31.9562 26.2785 31.9559 26.2782 31.9555C26.2778 31.9552 26.2775 31.9549 26.2772 31.9545C26.2768 31.9542 26.2765 31.9538 26.2761 31.9535C26.2758 31.9532 26.2755 31.9528 26.2751 31.9525C26.2748 31.9522 26.2744 31.9518 26.2741 31.9515C26.2738 31.9511 26.2734 31.9508 26.2731 31.9505C26.2728 31.9501 26.2724 31.9498 26.2721 31.9495C26.2717 31.9491 26.2714 31.9488 26.2711 31.9484C26.2707 31.9481 26.2704 31.9478 26.2701 31.9474C26.2697 31.9471 26.2694 31.9468 26.2691 31.9464C26.2687 31.9461 26.2684 31.9457 26.268 31.9454C26.2677 31.9451 26.2674 31.9447 26.267 31.9444C26.2667 31.9441 26.2664 31.9437 26.266 31.9434C26.2657 31.9431 26.2654 31.9427 26.265 31.9424C26.2647 31.942 26.2643 31.9417 26.264 31.9414C26.2637 31.941 26.2633 31.9407 26.263 31.9404C26.2627 31.94 26.2623 31.9397 26.262 31.9394C26.2617 31.939 26.2613 31.9387 26.261 31.9383C26.2606 31.938 26.2603 31.9377 26.26 31.9373C26.2596 31.937 26.2593 31.9367 26.259 31.9363C26.2586 31.936 26.2583 31.9357 26.258 31.9353C26.2576 31.935 26.2573 31.9347 26.257 31.9343C26.2566 31.934 26.2563 31.9337 26.256 31.9333C26.2556 31.933 26.2553 31.9327 26.255 31.9323C26.2546 31.932 26.2543 31.9316 26.2539 31.9313C26.2536 31.931 26.2533 31.9306 26.2529 31.9303C26.2526 31.93 26.2523 31.9296 26.2519 31.9293C26.2516 31.929 26.2513 31.9286 26.2509 31.9283C26.2506 31.928 26.2503 31.9276 26.2499 31.9273C26.2496 31.927 26.2493 31.9266 26.2489 31.9263C26.2486 31.926 26.2483 31.9256 26.2479 31.9253C26.2476 31.925 26.2473 31.9246 26.2469 31.9243C26.2466 31.924 26.2463 31.9236 26.2459 31.9233C26.2456 31.923 26.2453 31.9226 26.2449 31.9223C26.2446 31.922 26.2443 31.9216 26.2439 31.9213C26.2436 31.921 26.2433 31.9206 26.2429 31.9203C26.2426 31.92 26.2423 31.9196 26.2419 31.9193C26.2416 31.919 26.2413 31.9186 26.2409 31.9183C26.2406 31.918 26.2403 31.9176 26.2399 31.9173C26.2396 31.917 26.2393 31.9166 26.2389 31.9163C26.2386 31.916 26.2383 31.9156 26.2379 31.9153C26.2376 31.915 26.2373 31.9146 26.237 31.9143C26.2366 31.914 26.2363 31.9137 26.236 31.9133C26.2356 31.913 26.2353 31.9127 26.235 31.9123C26.2346 31.912 26.2343 31.9117 26.234 31.9113C26.2336 31.911 26.2333 31.9107 26.233 31.9103C26.2326 31.91 26.2323 31.9097 26.232 31.9093C26.2316 31.909 26.2313 31.9087 26.231 31.9083C26.2307 31.908 26.2303 31.9077 26.23 31.9074C26.2297 31.907 26.2293 31.9067 26.229 31.9064C26.2287 31.906 26.2283 31.9057 26.228 31.9054C26.2277 31.905 26.2273 31.9047 26.227 31.9044C26.2267 31.904 26.2264 31.9037 26.226 31.9034C26.2257 31.9031 26.2254 31.9027 26.225 31.9024C26.2247 31.9021 26.2244 31.9017 26.224 31.9014C26.2237 31.9011 26.2234 31.9007 26.2231 31.9004C26.2227 31.9001 26.2224 31.8998 26.2221 31.8994C26.2217 31.8991 26.2214 31.8988 26.2211 31.8984C26.2207 31.8981 26.2204 31.8978 26.2201 31.8975C26.2198 31.8971 26.2194 31.8968 26.2191 31.8965C26.2188 31.8961 26.2184 31.8958 26.2181 31.8955C26.2178 31.8951 26.2175 31.8948 26.2171 31.8945C26.2168 31.8942 26.2165 31.8938 26.2161 31.8935C26.2158 31.8932 26.2155 31.8928 26.2152 31.8925C26.2148 31.8922 26.2145 31.8919 26.2142 31.8915C26.2138 31.8912 26.2135 31.8909 26.2132 31.8905C26.2129 31.8902 26.2125 31.8899 26.2122 31.8896C26.2119 31.8892 26.2115 31.8889 26.2112 31.8886C26.2109 31.8882 26.2106 31.8879 26.2102 31.8876C26.2099 31.8873 26.2096 31.8869 26.2092 31.8866C26.2089 31.8863 26.2086 31.886 26.2083 31.8856C26.2079 31.8853 26.2076 31.885 26.2073 31.8846C26.207 31.8843 26.2066 31.884 26.2063 31.8837C26.206 31.8833 26.2056 31.883 26.2053 31.8827C26.205 31.8824 26.2047 31.882 26.2043 31.8817C26.204 31.8814 26.2037 31.881 26.2034 31.8807C26.203 31.8804 26.2027 31.8801 26.2024 31.8797C26.202 31.8794 26.2017 31.8791 26.2014 31.8788C26.2011 31.8784 26.2007 31.8781 26.2004 31.8778C26.2001 31.8775 26.1998 31.8771 26.1994 31.8768C26.1991 31.8765 26.1988 31.8761 26.1985 31.8758C26.1981 31.8755 26.1978 31.8752 26.1975 31.8748C26.1972 31.8745 26.1968 31.8742 26.1965 31.8739C26.1962 31.8735 26.1958 31.8732 26.1955 31.8729C26.1952 31.8726 26.1949 31.8722 26.1945 31.8719C26.1942 31.8716 26.1939 31.8713 26.1936 31.8709C26.1932 31.8706 26.1929 31.8703 26.1926 31.87C26.1923 31.8696 26.1919 31.8693 26.1916 31.869C26.1913 31.8687 26.191 31.8683 26.1906 31.868C26.1903 31.8677 26.19 31.8674 26.1897 31.867C26.1893 31.8667 26.189 31.8664 26.1887 31.8661C26.1884 31.8657 26.188 31.8654 26.1877 31.8651C26.1874 31.8648 26.1871 31.8644 26.1868 31.8641C26.1864 31.8638 26.1861 31.8635 26.1858 31.8631C26.1855 31.8628 26.1851 31.8625 26.1848 31.8622C26.1845 31.8618 26.1842 31.8615 26.1838 31.8612C26.1835 31.8609 26.1832 31.8606 26.1829 31.8602C26.1825 31.8599 26.1822 31.8596 26.1819 31.8593C26.1816 31.8589 26.1812 31.8586 26.1809 31.8583C26.1806 31.858 26.1803 31.8576 26.18 31.8573C26.1796 31.857 26.1793 31.8567 26.179 31.8563C26.1787 31.856 26.1783 31.8557 26.178 31.8554C26.1777 31.8551 26.1774 31.8547 26.177 31.8544C26.1767 31.8541 26.1764 31.8538 26.1761 31.8534C26.1758 31.8531 26.1754 31.8528 26.1751 31.8525C26.1748 31.8522 26.1745 31.8518 26.1741 31.8515C26.1738 31.8512 26.1735 31.8509 26.1732 31.8505C26.1729 31.8502 26.1725 31.8499 26.1722 31.8496C26.1719 31.8493 26.1716 31.8489 26.1712 31.8486C26.1709 31.8483 26.1706 31.848 26.1703 31.8476C26.17 31.8473 26.1696 31.847 26.1693 31.8467C26.169 31.8464 26.1687 31.846 26.1683 31.8457C26.168 31.8454 26.1677 31.8451 26.1674 31.8447C26.1671 31.8444 26.1667 31.8441 26.1664 31.8438C26.1661 31.8435 26.1658 31.8431 26.1655 31.8428C26.1651 31.8425 26.1648 31.8422 26.1645 31.8419C26.1642 31.8415 26.1639 31.8412 26.1635 31.8409C26.1632 31.8406 26.1629 31.8403 26.1626 31.8399C26.1623 31.8396 26.1619 31.8393 26.1616 31.839C26.1613 31.8387 26.161 31.8383 26.1607 31.838C26.1603 31.8377 26.16 31.8374 26.1597 31.8371C26.1594 31.8367 26.1591 31.8364 26.1587 31.8361C26.1584 31.8358 26.1581 31.8355 26.1578 31.8351C26.1575 31.8348 26.1571 31.8345 26.1568 31.8342C26.1565 31.8339 26.1562 31.8335 26.1559 31.8332C26.1555 31.8329 26.1552 31.8326 26.1549 31.8323C26.1546 31.8319 26.1543 31.8316 26.1539 31.8313C26.1536 31.831 26.1533 31.8307 26.153 31.8303C26.1527 31.83 26.1523 31.8297 26.152 31.8294C26.1517 31.8291 26.1514 31.8288 26.1511 31.8284C26.1507 31.8281 26.1504 31.8278 26.1501 31.8275C26.1498 31.8272 26.1495 31.8268 26.1492 31.8265C26.1488 31.8262 26.1485 31.8259 26.1482 31.8256C26.1479 31.8252 26.1476 31.8249 26.1472 31.8246C26.1469 31.8243 26.1466 31.824 26.1463 31.8237C26.146 31.8233 26.1457 31.823 26.1453 31.8227C26.145 31.8224 26.1447 31.8221 26.1444 31.8218C26.1441 31.8214 26.1438 31.8211 26.1434 31.8208C26.1431 31.8205 26.1428 31.8202 26.1425 31.8198C26.1422 31.8195 26.1418 31.8192 26.1415 31.8189C26.1412 31.8186 26.1409 31.8183 26.1406 31.8179C26.1403 31.8176 26.1399 31.8173 26.1396 31.817C26.1393 31.8167 26.139 31.8164 26.1387 31.816C26.1384 31.8157 26.138 31.8154 26.1377 31.8151C26.1374 31.8148 26.1371 31.8145 26.1368 31.8141C26.1365 31.8138 26.1361 31.8135 26.1358 31.8132C26.1355 31.8129 26.1352 31.8126 26.1349 31.8122C26.1346 31.8119 26.1342 31.8116 26.1339 31.8113C26.1336 31.811 26.1333 31.8107 26.133 31.8103C26.1327 31.81 26.1324 31.8097 26.132 31.8094C26.1317 31.8091 26.1314 31.8088 26.1311 31.8085C26.1308 31.8081 26.1305 31.8078 26.1301 31.8075C26.1298 31.8072 26.1295 31.8069 26.1292 31.8066C26.1289 31.8062 26.1286 31.8059 26.1283 31.8056C26.1279 31.8053 26.1276 31.805 26.1273 31.8047C26.127 31.8044 26.1267 31.804 26.1264 31.8037C26.1261 31.8034 26.1257 31.8031 26.1254 31.8028C26.1251 31.8025 26.1248 31.8022 26.1245 31.8018C26.1242 31.8015 26.1238 31.8012 26.1235 31.8009C26.1232 31.8006 26.1229 31.8003 26.1226 31.8C26.1223 31.7996 26.122 31.7993 26.1216 31.799C26.1213 31.7987 26.121 31.7984 26.1207 31.7981C26.1204 31.7978 26.1201 31.7974 26.1198 31.7971C26.1195 31.7968 26.1191 31.7965 26.1188 31.7962C26.1185 31.7959 26.1182 31.7956 26.1179 31.7952C26.1176 31.7949 26.1173 31.7946 26.1169 31.7943C26.1166 31.794 26.1163 31.7937 26.116 31.7934C26.1157 31.7931 26.1154 31.7927 26.1151 31.7924C26.1148 31.7921 26.1144 31.7918 26.1141 31.7915C26.1138 31.7912 26.1135 31.7909 26.1132 31.7906C26.1129 31.7902 26.1126 31.7899 26.1123 31.7896C26.1119 31.7893 26.1116 31.789 26.1113 31.7887C26.111 31.7884 26.1107 31.7881 26.1104 31.7877C26.1101 31.7874 26.1098 31.7871 26.1094 31.7868C26.1091 31.7865 26.1088 31.7862 26.1085 31.7859C26.1082 31.7856 26.1079 31.7852 26.1076 31.7849C26.1073 31.7846 26.1069 31.7843 26.1066 31.784C26.1063 31.7837 26.106 31.7834 26.1057 31.7831C26.1054 31.7828 26.1051 31.7824 26.1048 31.7821C26.1045 31.7818 26.1041 31.7815 26.1038 31.7812C26.1035 31.7809 26.1032 31.7806 26.1029 31.7803C26.1026 31.78 26.1023 31.7796 26.102 31.7793C26.1017 31.779 26.1013 31.7787 26.101 31.7784C26.1007 31.7781 26.1004 31.7778 26.1001 31.7775C26.0998 31.7772 26.0995 31.7768 26.0992 31.7765C26.0989 31.7762 26.0986 31.7759 26.0982 31.7756C26.0979 31.7753 26.0976 31.775 26.0973 31.7747C26.097 31.7744 26.0967 31.7741 26.0964 31.7737C26.0961 31.7734 26.0958 31.7731 26.0955 31.7728C26.0951 31.7725 26.0948 31.7722 26.0945 31.7719C26.0942 31.7716 26.0939 31.7713 26.0936 31.771C26.0933 31.7706 26.093 31.7703 26.0927 31.77C26.0924 31.7697 26.092 31.7694 26.0917 31.7691C26.0914 31.7688 26.0911 31.7685 26.0908 31.7682C26.0905 31.7679 26.0902 31.7676 26.0899 31.7672C26.0896 31.7669 26.0893 31.7666 26.089 31.7663C26.0886 31.766 26.0883 31.7657 26.088 31.7654C26.0877 31.7651 26.0874 31.7648 26.0871 31.7645C26.0868 31.7642 26.0865 31.7639 26.0862 31.7635C26.0859 31.7632 26.0856 31.7629 26.0853 31.7626C26.0849 31.7623 26.0846 31.762 26.0843 31.7617C26.084 31.7614 26.0837 31.7611 26.0834 31.7608C26.0831 31.7605 26.0828 31.7602 26.0825 31.7598C26.0822 31.7595 26.0819 31.7592 26.0816 31.7589C26.0813 31.7586 26.0809 31.7583 26.0806 31.758C26.0803 31.7577 26.08 31.7574 26.0797 31.7571C26.0794 31.7568 26.0791 31.7565 26.0788 31.7562C26.0785 31.7559 26.0782 31.7555 26.0779 31.7552C26.0776 31.7549 26.0773 31.7546 26.077 31.7543C26.0766 31.754 26.0763 31.7537 26.076 31.7534C26.0757 31.7531 26.0754 31.7528 26.0751 31.7525C26.0748 31.7522 26.0745 31.7519 26.0742 31.7516C26.0739 31.7513 26.0736 31.7509 26.0733 31.7506C26.073 31.7503 26.0727 31.75 26.0724 31.7497C26.0721 31.7494 26.0717 31.7491 26.0714 31.7488C26.0711 31.7485 26.0708 31.7482 26.0705 31.7479C26.0702 31.7476 26.0699 31.7473 26.0696 31.747C26.0693 31.7467 26.069 31.7464 26.0687 31.7461C26.0684 31.7458 26.0681 31.7454 26.0678 31.7451C26.0675 31.7448 26.0672 31.7445 26.0669 31.7442C26.0666 31.7439 26.0663 31.7436 26.0659 31.7433C26.0656 31.743 26.0653 31.7427 26.065 31.7424C26.0647 31.7421 26.0644 31.7418 26.0641 31.7415C26.0638 31.7412 26.0635 31.7409 26.0632 31.7406C26.0629 31.7403 26.0626 31.74 26.0623 31.7397C26.062 31.7394 26.0617 31.739 26.0614 31.7387C26.0611 31.7384 26.0608 31.7381 26.0605 31.7378C26.0602 31.7375 26.0599 31.7372 26.0596 31.7369C26.0593 31.7366 26.0589 31.7363 26.0586 31.736C26.0583 31.7357 26.058 31.7354 26.0577 31.7351C26.0574 31.7348 26.0571 31.7345 26.0568 31.7342C26.0565 31.7339 26.0562 31.7336 26.0559 31.7333C26.0556 31.733 26.0553 31.7327 26.055 31.7324C26.0547 31.7321 26.0544 31.7318 26.0541 31.7315C26.0538 31.7312 26.0535 31.7309 26.0532 31.7305C26.0529 31.7302 26.0526 31.7299 26.0523 31.7296C26.052 31.7293 26.0517 31.729 26.0514 31.7287C26.0511 31.7284 26.0508 31.7281 26.0505 31.7278C26.0502 31.7275 26.0499 31.7272 26.0496 31.7269C26.0493 31.7266 26.0489 31.7263 26.0486 31.726C26.0483 31.7257 26.048 31.7254 26.0477 31.7251C26.0474 31.7248 26.0471 31.7245 26.0468 31.7242C26.0465 31.7239 26.0462 31.7236 26.0459 31.7233C26.0456 31.723 26.0453 31.7227 26.045 31.7224C26.0447 31.7221 26.0444 31.7218 26.0441 31.7215C26.0438 31.7212 26.0435 31.7209 26.0432 31.7206C26.0429 31.7203 26.0426 31.72 26.0423 31.7197C26.042 31.7194 26.0417 31.7191 26.0414 31.7188C26.0411 31.7185 26.0408 31.7182 26.0405 31.7179C26.0402 31.7176 26.0399 31.7173 26.0396 31.717C26.0393 31.7167 26.039 31.7164 26.0387 31.7161C26.0384 31.7158 26.0381 31.7155 26.0378 31.7152C26.0375 31.7149 26.0372 31.7146 26.0369 31.7143C26.0366 31.714 26.0363 31.7137 26.036 31.7134C26.0357 31.7131 26.0354 31.7128 26.0351 31.7125C26.0348 31.7122 26.0345 31.7119 26.0342 31.7116C26.0339 31.7113 26.0336 31.711 26.0333 31.7107C26.033 31.7104 26.0327 31.7101 26.0324 31.7098C26.0321 31.7095 26.0318 31.7092 26.0315 31.7089C26.0312 31.7086 26.0309 31.7083 26.0306 31.708C26.0303 31.7077 26.03 31.7074 26.0297 31.7071C26.0294 31.7068 26.0291 31.7065 26.0288 31.7062C26.0285 31.7059 26.0282 31.7056 26.0279 31.7053C26.0276 31.705 26.0273 31.7047 26.027 31.7044C26.0267 31.7041 26.0264 31.7038 26.0261 31.7035C26.0258 31.7032 26.0255 31.7029 26.0252 31.7026C26.0249 31.7023 26.0246 31.702 26.0243 31.7017C26.024 31.7014 26.0237 31.7011 26.0235 31.7008C26.0232 31.7005 26.0229 31.7002 26.0226 31.6999C26.0223 31.6996 26.022 31.6993 26.0217 31.699C26.0214 31.6987 26.0211 31.6984 26.0208 31.6981C26.0205 31.6978 26.0202 31.6975 26.0199 31.6972C26.0196 31.6969 26.0193 31.6967 26.019 31.6964C26.0187 31.6961 26.0184 31.6958 26.0181 31.6955C26.0178 31.6952 26.0175 31.6949 26.0172 31.6946C26.0169 31.6943 26.0166 31.694 26.0163 31.6937C26.016 31.6934 26.0157 31.6931 26.0154 31.6928L24.6012 33.107C24.6015 33.1073 24.6018 33.1076 24.6021 33.1079C24.6024 33.1082 24.6027 33.1085 24.603 33.1088C24.6033 33.1091 24.6036 33.1094 24.6039 33.1097C24.6042 33.11 24.6045 33.1103 24.6048 33.1106C24.6051 33.1109 24.6054 33.1112 24.6057 33.1115C24.606 33.1118 24.6063 33.1121 24.6066 33.1124C24.6069 33.1126 24.6072 33.1129 24.6075 33.1132C24.6077 33.1135 24.608 33.1138 24.6083 33.1141C24.6086 33.1144 24.6089 33.1147 24.6092 33.115C24.6095 33.1153 24.6098 33.1156 24.6101 33.1159C24.6104 33.1162 24.6107 33.1165 24.611 33.1168C24.6113 33.1171 24.6116 33.1174 24.6119 33.1177C24.6122 33.118 24.6125 33.1183 24.6128 33.1186C24.6131 33.1189 24.6134 33.1192 24.6137 33.1195C24.614 33.1198 24.6143 33.1201 24.6146 33.1204C24.6149 33.1207 24.6152 33.121 24.6155 33.1213C24.6158 33.1216 24.6161 33.1219 24.6164 33.1222C24.6167 33.1225 24.617 33.1228 24.6173 33.1231C24.6176 33.1234 24.6179 33.1237 24.6182 33.124C24.6185 33.1243 24.6188 33.1246 24.6191 33.1249C24.6194 33.1252 24.6197 33.1255 24.62 33.1258C24.6203 33.1261 24.6206 33.1264 24.6209 33.1267C24.6212 33.127 24.6215 33.1273 24.6218 33.1276C24.6221 33.1279 24.6224 33.1282 24.6227 33.1285C24.623 33.1288 24.6233 33.1291 24.6236 33.1294C24.6239 33.1297 24.6242 33.13 24.6245 33.1303C24.6248 33.1306 24.6251 33.1309 24.6254 33.1312C24.6257 33.1315 24.626 33.1318 24.6263 33.1321C24.6266 33.1324 24.6269 33.1327 24.6272 33.133C24.6275 33.1333 24.6278 33.1336 24.6281 33.1339C24.6284 33.1342 24.6287 33.1345 24.629 33.1348C24.6293 33.1351 24.6296 33.1354 24.6299 33.1357C24.6302 33.136 24.6305 33.1363 24.6308 33.1366C24.6311 33.1369 24.6314 33.1372 24.6317 33.1375C24.632 33.1378 24.6323 33.1381 24.6326 33.1384C24.6329 33.1387 24.6332 33.139 24.6335 33.1393C24.6338 33.1396 24.6341 33.1399 24.6344 33.1402C24.6347 33.1405 24.635 33.1408 24.6353 33.1411C24.6356 33.1414 24.6359 33.1417 24.6362 33.142C24.6365 33.1423 24.6369 33.1426 24.6372 33.1429C24.6375 33.1432 24.6378 33.1436 24.6381 33.1439C24.6384 33.1442 24.6387 33.1445 24.639 33.1448C24.6393 33.1451 24.6396 33.1454 24.6399 33.1457C24.6402 33.146 24.6405 33.1463 24.6408 33.1466C24.6411 33.1469 24.6414 33.1472 24.6417 33.1475C24.642 33.1478 24.6423 33.1481 24.6426 33.1484C24.6429 33.1487 24.6432 33.149 24.6435 33.1493C24.6438 33.1496 24.6441 33.1499 24.6444 33.1502C24.6447 33.1505 24.645 33.1508 24.6453 33.1511C24.6456 33.1514 24.6459 33.1517 24.6463 33.152C24.6466 33.1523 24.6469 33.1527 24.6472 33.153C24.6475 33.1533 24.6478 33.1536 24.6481 33.1539C24.6484 33.1542 24.6487 33.1545 24.649 33.1548C24.6493 33.1551 24.6496 33.1554 24.6499 33.1557C24.6502 33.156 24.6505 33.1563 24.6508 33.1566C24.6511 33.1569 24.6514 33.1572 24.6517 33.1575C24.652 33.1578 24.6523 33.1581 24.6526 33.1584C24.653 33.1587 24.6533 33.159 24.6536 33.1594C24.6539 33.1597 24.6542 33.16 24.6545 33.1603C24.6548 33.1606 24.6551 33.1609 24.6554 33.1612C24.6557 33.1615 24.656 33.1618 24.6563 33.1621C24.6566 33.1624 24.6569 33.1627 24.6572 33.163C24.6575 33.1633 24.6578 33.1636 24.6581 33.1639C24.6585 33.1642 24.6588 33.1646 24.6591 33.1649C24.6594 33.1652 24.6597 33.1655 24.66 33.1658C24.6603 33.1661 24.6606 33.1664 24.6609 33.1667C24.6612 33.167 24.6615 33.1673 24.6618 33.1676C24.6621 33.1679 24.6624 33.1682 24.6627 33.1685C24.663 33.1688 24.6634 33.1691 24.6637 33.1695C24.664 33.1698 24.6643 33.1701 24.6646 33.1704C24.6649 33.1707 24.6652 33.171 24.6655 33.1713C24.6658 33.1716 24.6661 33.1719 24.6664 33.1722C24.6667 33.1725 24.667 33.1728 24.6673 33.1731C24.6677 33.1734 24.668 33.1738 24.6683 33.1741C24.6686 33.1744 24.6689 33.1747 24.6692 33.175C24.6695 33.1753 24.6698 33.1756 24.6701 33.1759C24.6704 33.1762 24.6707 33.1765 24.671 33.1768C24.6714 33.1771 24.6717 33.1775 24.672 33.1778C24.6723 33.1781 24.6726 33.1784 24.6729 33.1787C24.6732 33.179 24.6735 33.1793 24.6738 33.1796C24.6741 33.1799 24.6744 33.1802 24.6747 33.1805C24.6751 33.1808 24.6754 33.1812 24.6757 33.1815C24.676 33.1818 24.6763 33.1821 24.6766 33.1824C24.6769 33.1827 24.6772 33.183 24.6775 33.1833C24.6778 33.1836 24.6781 33.1839 24.6785 33.1842C24.6788 33.1846 24.6791 33.1849 24.6794 33.1852C24.6797 33.1855 24.68 33.1858 24.6803 33.1861C24.6806 33.1864 24.6809 33.1867 24.6812 33.187C24.6815 33.1873 24.6819 33.1876 24.6822 33.188C24.6825 33.1883 24.6828 33.1886 24.6831 33.1889C24.6834 33.1892 24.6837 33.1895 24.684 33.1898C24.6843 33.1901 24.6846 33.1904 24.685 33.1907C24.6853 33.1911 24.6856 33.1914 24.6859 33.1917C24.6862 33.192 24.6865 33.1923 24.6868 33.1926C24.6871 33.1929 24.6874 33.1932 24.6878 33.1935C24.6881 33.1939 24.6884 33.1942 24.6887 33.1945C24.689 33.1948 24.6893 33.1951 24.6896 33.1954C24.6899 33.1957 24.6902 33.196 24.6906 33.1963C24.6909 33.1967 24.6912 33.197 24.6915 33.1973C24.6918 33.1976 24.6921 33.1979 24.6924 33.1982C24.6927 33.1985 24.693 33.1988 24.6934 33.1991C24.6937 33.1995 24.694 33.1998 24.6943 33.2001C24.6946 33.2004 24.6949 33.2007 24.6952 33.201C24.6955 33.2013 24.6959 33.2016 24.6962 33.202C24.6965 33.2023 24.6968 33.2026 24.6971 33.2029C24.6974 33.2032 24.6977 33.2035 24.698 33.2038C24.6984 33.2041 24.6987 33.2045 24.699 33.2048C24.6993 33.2051 24.6996 33.2054 24.6999 33.2057C24.7002 33.206 24.7005 33.2063 24.7009 33.2066C24.7012 33.207 24.7015 33.2073 24.7018 33.2076C24.7021 33.2079 24.7024 33.2082 24.7027 33.2085C24.703 33.2088 24.7034 33.2091 24.7037 33.2095C24.704 33.2098 24.7043 33.2101 24.7046 33.2104C24.7049 33.2107 24.7052 33.211 24.7056 33.2113C24.7059 33.2117 24.7062 33.212 24.7065 33.2123C24.7068 33.2126 24.7071 33.2129 24.7074 33.2132C24.7077 33.2135 24.7081 33.2139 24.7084 33.2142C24.7087 33.2145 24.709 33.2148 24.7093 33.2151C24.7096 33.2154 24.7099 33.2157 24.7103 33.2161C24.7106 33.2164 24.7109 33.2167 24.7112 33.217C24.7115 33.2173 24.7118 33.2176 24.7122 33.2179C24.7125 33.2183 24.7128 33.2186 24.7131 33.2189C24.7134 33.2192 24.7137 33.2195 24.714 33.2198C24.7144 33.2201 24.7147 33.2205 24.715 33.2208C24.7153 33.2211 24.7156 33.2214 24.7159 33.2217C24.7162 33.222 24.7166 33.2224 24.7169 33.2227C24.7172 33.223 24.7175 33.2233 24.7178 33.2236C24.7181 33.2239 24.7185 33.2242 24.7188 33.2246C24.7191 33.2249 24.7194 33.2252 24.7197 33.2255C24.72 33.2258 24.7204 33.2261 24.7207 33.2265C24.721 33.2268 24.7213 33.2271 24.7216 33.2274C24.7219 33.2277 24.7222 33.228 24.7226 33.2284C24.7229 33.2287 24.7232 33.229 24.7235 33.2293C24.7238 33.2296 24.7241 33.2299 24.7245 33.2303C24.7248 33.2306 24.7251 33.2309 24.7254 33.2312C24.7257 33.2315 24.726 33.2318 24.7264 33.2322C24.7267 33.2325 24.727 33.2328 24.7273 33.2331C24.7276 33.2334 24.728 33.2337 24.7283 33.2341C24.7286 33.2344 24.7289 33.2347 24.7292 33.235C24.7295 33.2353 24.7299 33.2356 24.7302 33.236C24.7305 33.2363 24.7308 33.2366 24.7311 33.2369C24.7314 33.2372 24.7318 33.2376 24.7321 33.2379C24.7324 33.2382 24.7327 33.2385 24.733 33.2388C24.7334 33.2391 24.7337 33.2395 24.734 33.2398C24.7343 33.2401 24.7346 33.2404 24.7349 33.2407C24.7353 33.2411 24.7356 33.2414 24.7359 33.2417C24.7362 33.242 24.7365 33.2423 24.7369 33.2426C24.7372 33.243 24.7375 33.2433 24.7378 33.2436C24.7381 33.2439 24.7384 33.2442 24.7388 33.2446C24.7391 33.2449 24.7394 33.2452 24.7397 33.2455C24.74 33.2458 24.7404 33.2462 24.7407 33.2465C24.741 33.2468 24.7413 33.2471 24.7416 33.2474C24.742 33.2478 24.7423 33.2481 24.7426 33.2484C24.7429 33.2487 24.7432 33.249 24.7436 33.2493C24.7439 33.2497 24.7442 33.25 24.7445 33.2503C24.7448 33.2506 24.7452 33.2509 24.7455 33.2513C24.7458 33.2516 24.7461 33.2519 24.7464 33.2522C24.7468 33.2525 24.7471 33.2529 24.7474 33.2532C24.7477 33.2535 24.748 33.2538 24.7484 33.2542C24.7487 33.2545 24.749 33.2548 24.7493 33.2551C24.7496 33.2554 24.75 33.2558 24.7503 33.2561C24.7506 33.2564 24.7509 33.2567 24.7512 33.257C24.7516 33.2574 24.7519 33.2577 24.7522 33.258C24.7525 33.2583 24.7529 33.2586 24.7532 33.259C24.7535 33.2593 24.7538 33.2596 24.7541 33.2599C24.7545 33.2602 24.7548 33.2606 24.7551 33.2609C24.7554 33.2612 24.7557 33.2615 24.7561 33.2619C24.7564 33.2622 24.7567 33.2625 24.757 33.2628C24.7574 33.2631 24.7577 33.2635 24.758 33.2638C24.7583 33.2641 24.7586 33.2644 24.759 33.2648C24.7593 33.2651 24.7596 33.2654 24.7599 33.2657C24.7603 33.266 24.7606 33.2664 24.7609 33.2667C24.7612 33.267 24.7615 33.2673 24.7619 33.2677C24.7622 33.268 24.7625 33.2683 24.7628 33.2686C24.7632 33.2689 24.7635 33.2693 24.7638 33.2696C24.7641 33.2699 24.7644 33.2702 24.7648 33.2706C24.7651 33.2709 24.7654 33.2712 24.7657 33.2715C24.7661 33.2719 24.7664 33.2722 24.7667 33.2725C24.767 33.2728 24.7674 33.2731 24.7677 33.2735C24.768 33.2738 24.7683 33.2741 24.7686 33.2744C24.769 33.2748 24.7693 33.2751 24.7696 33.2754C24.7699 33.2757 24.7703 33.2761 24.7706 33.2764C24.7709 33.2767 24.7712 33.277 24.7716 33.2774C24.7719 33.2777 24.7722 33.278 24.7725 33.2783C24.7729 33.2787 24.7732 33.279 24.7735 33.2793C24.7738 33.2796 24.7742 33.28 24.7745 33.2803C24.7748 33.2806 24.7751 33.2809 24.7755 33.2812C24.7758 33.2816 24.7761 33.2819 24.7764 33.2822C24.7768 33.2825 24.7771 33.2829 24.7774 33.2832C24.7777 33.2835 24.7781 33.2838 24.7784 33.2842C24.7787 33.2845 24.779 33.2848 24.7794 33.2851C24.7797 33.2855 24.78 33.2858 24.7803 33.2861C24.7807 33.2865 24.781 33.2868 24.7813 33.2871C24.7816 33.2874 24.782 33.2878 24.7823 33.2881C24.7826 33.2884 24.7829 33.2887 24.7833 33.2891C24.7836 33.2894 24.7839 33.2897 24.7842 33.29C24.7846 33.2904 24.7849 33.2907 24.7852 33.291C24.7855 33.2913 24.7859 33.2917 24.7862 33.292C24.7865 33.2923 24.7869 33.2926 24.7872 33.293C24.7875 33.2933 24.7878 33.2936 24.7882 33.294C24.7885 33.2943 24.7888 33.2946 24.7891 33.2949C24.7895 33.2953 24.7898 33.2956 24.7901 33.2959C24.7904 33.2962 24.7908 33.2966 24.7911 33.2969C24.7914 33.2972 24.7918 33.2975 24.7921 33.2979C24.7924 33.2982 24.7927 33.2985 24.7931 33.2989C24.7934 33.2992 24.7937 33.2995 24.794 33.2998C24.7944 33.3002 24.7947 33.3005 24.795 33.3008C24.7954 33.3012 24.7957 33.3015 24.796 33.3018C24.7963 33.3021 24.7967 33.3025 24.797 33.3028C24.7973 33.3031 24.7977 33.3034 24.798 33.3038C24.7983 33.3041 24.7986 33.3044 24.799 33.3048C24.7993 33.3051 24.7996 33.3054 24.8 33.3057C24.8003 33.3061 24.8006 33.3064 24.8009 33.3067C24.8013 33.3071 24.8016 33.3074 24.8019 33.3077C24.8023 33.308 24.8026 33.3084 24.8029 33.3087C24.8032 33.309 24.8036 33.3094 24.8039 33.3097C24.8042 33.31 24.8046 33.3103 24.8049 33.3107C24.8052 33.311 24.8055 33.3113 24.8059 33.3117C24.8062 33.312 24.8065 33.3123 24.8069 33.3127C24.8072 33.313 24.8075 33.3133 24.8079 33.3136C24.8082 33.314 24.8085 33.3143 24.8088 33.3146C24.8092 33.315 24.8095 33.3153 24.8098 33.3156C24.8102 33.316 24.8105 33.3163 24.8108 33.3166C24.8112 33.3169 24.8115 33.3173 24.8118 33.3176C24.8121 33.3179 24.8125 33.3183 24.8128 33.3186C24.8131 33.3189 24.8135 33.3193 24.8138 33.3196C24.8141 33.3199 24.8145 33.3202 24.8148 33.3206C24.8151 33.3209 24.8154 33.3212 24.8158 33.3216C24.8161 33.3219 24.8164 33.3222 24.8168 33.3226C24.8171 33.3229 24.8174 33.3232 24.8178 33.3236C24.8181 33.3239 24.8184 33.3242 24.8188 33.3246C24.8191 33.3249 24.8194 33.3252 24.8198 33.3255C24.8201 33.3259 24.8204 33.3262 24.8207 33.3265C24.8211 33.3269 24.8214 33.3272 24.8217 33.3275C24.8221 33.3279 24.8224 33.3282 24.8227 33.3285C24.8231 33.3289 24.8234 33.3292 24.8237 33.3295C24.8241 33.3299 24.8244 33.3302 24.8247 33.3305C24.8251 33.3309 24.8254 33.3312 24.8257 33.3315C24.8261 33.3319 24.8264 33.3322 24.8267 33.3325C24.8271 33.3329 24.8274 33.3332 24.8277 33.3335C24.8281 33.3338 24.8284 33.3342 24.8287 33.3345C24.8291 33.3348 24.8294 33.3352 24.8297 33.3355C24.8301 33.3358 24.8304 33.3362 24.8307 33.3365C24.8311 33.3368 24.8314 33.3372 24.8317 33.3375C24.8321 33.3378 24.8324 33.3382 24.8327 33.3385C24.8331 33.3388 24.8334 33.3392 24.8337 33.3395C24.8341 33.3398 24.8344 33.3402 24.8347 33.3405C24.8351 33.3408 24.8354 33.3412 24.8357 33.3415C24.8361 33.3418 24.8364 33.3422 24.8367 33.3425C24.8371 33.3429 24.8374 33.3432 24.8377 33.3435C24.8381 33.3439 24.8384 33.3442 24.8387 33.3445C24.8391 33.3449 24.8394 33.3452 24.8397 33.3455C24.8401 33.3459 24.8404 33.3462 24.8407 33.3465C24.8411 33.3469 24.8414 33.3472 24.8417 33.3475C24.8421 33.3479 24.8424 33.3482 24.8427 33.3485C24.8431 33.3489 24.8434 33.3492 24.8438 33.3495C24.8441 33.3499 24.8444 33.3502 24.8448 33.3505C24.8451 33.3509 24.8454 33.3512 24.8458 33.3516C24.8461 33.3519 24.8464 33.3522 24.8468 33.3526C24.8471 33.3529 24.8474 33.3532 24.8478 33.3536C24.8481 33.3539 24.8484 33.3542 24.8488 33.3546C24.8491 33.3549 24.8495 33.3552 24.8498 33.3556C24.8501 33.3559 24.8505 33.3563 24.8508 33.3566C24.8511 33.3569 24.8515 33.3573 24.8518 33.3576C24.8521 33.3579 24.8525 33.3583 24.8528 33.3586C24.8532 33.3589 24.8535 33.3593 24.8538 33.3596C24.8542 33.36 24.8545 33.3603 24.8548 33.3606C24.8552 33.361 24.8555 33.3613 24.8559 33.3616C24.8562 33.362 24.8565 33.3623 24.8569 33.3627C24.8572 33.363 24.8575 33.3633 24.8579 33.3637C24.8582 33.364 24.8585 33.3643 24.8589 33.3647C24.8592 33.365 24.8596 33.3654 24.8599 33.3657C24.8602 33.366 24.8606 33.3664 24.8609 33.3667C24.8612 33.367 24.8616 33.3674 24.8619 33.3677C24.8623 33.3681 24.8626 33.3684 24.8629 33.3687C24.8633 33.3691 24.8636 33.3694 24.864 33.3697C24.8643 33.3701 24.8646 33.3704 24.865 33.3708C24.8653 33.3711 24.8656 33.3714 24.866 33.3718C24.8663 33.3721 24.8667 33.3725 24.867 33.3728C24.8673 33.3731 24.8677 33.3735 24.868 33.3738C24.8684 33.3741 24.8687 33.3745 24.869 33.3748C24.8694 33.3752 24.8697 33.3755 24.87 33.3758C24.8704 33.3762 24.8707 33.3765 24.8711 33.3769C24.8714 33.3772 24.8717 33.3775 24.8721 33.3779C24.8724 33.3782 24.8728 33.3786 24.8731 33.3789C24.8734 33.3792 24.8738 33.3796 24.8741 33.3799C24.8745 33.3803 24.8748 33.3806 24.8751 33.3809C24.8755 33.3813 24.8758 33.3816 24.8762 33.3819C24.8765 33.3823 24.8768 33.3826 24.8772 33.383C24.8775 33.3833 24.8779 33.3836 24.8782 33.384C24.8785 33.3843 24.8789 33.3847 24.8792 33.385C24.8796 33.3854 24.8799 33.3857 24.8802 33.386C24.8806 33.3864 24.8809 33.3867 24.8813 33.3871C24.8816 33.3874 24.8819 33.3877 24.8823 33.3881C24.8826 33.3884 24.883 33.3888 24.8833 33.3891C24.8836 33.3894 24.884 33.3898 24.8843 33.3901C24.8847 33.3905 24.885 33.3908 24.8854 33.3911C24.8857 33.3915 24.886 33.3918 24.8864 33.3922C24.8867 33.3925 24.8871 33.3929 24.8874 33.3932C24.8877 33.3935 24.8881 33.3939 24.8884 33.3942C24.8888 33.3946 24.8891 33.3949 24.8895 33.3952C24.8898 33.3956 24.8901 33.3959 24.8905 33.3963C24.8908 33.3966 24.8912 33.397 24.8915 33.3973C24.8919 33.3976 24.8922 33.398 24.8925 33.3983C24.8929 33.3987 24.8932 33.399 24.8936 33.3994C24.8939 33.3997 24.8942 33.4 24.8946 33.4004C24.8949 33.4007 24.8953 33.4011 24.8956 33.4014C24.896 33.4018 24.8963 33.4021 24.8966 33.4024C24.897 33.4028 24.8973 33.4031 24.8977 33.4035C24.898 33.4038 24.8984 33.4042 24.8987 33.4045C24.899 33.4048 24.8994 33.4052 24.8997 33.4055C24.9001 33.4059 24.9004 33.4062 24.9008 33.4066C24.9011 33.4069 24.9015 33.4072 24.9018 33.4076C24.9021 33.4079 24.9025 33.4083 24.9028 33.4086C24.9032 33.409 24.9035 33.4093 24.9039 33.4097C24.9042 33.41 24.9045 33.4103 24.9049 33.4107C24.9052 33.411 24.9056 33.4114 24.9059 33.4117C24.9063 33.4121 24.9066 33.4124 24.907 33.4128C24.9073 33.4131 24.9076 33.4134 24.908 33.4138C24.9083 33.4141 24.9087 33.4145 24.909 33.4148C24.9094 33.4152 24.9097 33.4155 24.9101 33.4159C24.9104 33.4162 24.9108 33.4165 24.9111 33.4169C24.9114 33.4172 24.9118 33.4176 24.9121 33.4179C24.9125 33.4183 24.9128 33.4186 24.9132 33.419C24.9135 33.4193 24.9139 33.4197 24.9142 33.42C24.9146 33.4203 24.9149 33.4207 24.9152 33.421C24.9156 33.4214 24.9159 33.4217 24.9163 33.4221C24.9166 33.4224 24.917 33.4228 24.9173 33.4231C24.9177 33.4235 24.918 33.4238 24.9184 33.4241C24.9187 33.4245 24.919 33.4248 24.9194 33.4252C24.9197 33.4255 24.9201 33.4259 24.9204 33.4262C24.9208 33.4266 24.9211 33.4269 24.9215 33.4273C24.9218 33.4276 24.9222 33.428 24.9225 33.4283C24.9229 33.4287 24.9232 33.429 24.9236 33.4293C24.9239 33.4297 24.9242 33.43 24.9246 33.4304C24.9249 33.4307 24.9253 33.4311 24.9256 33.4314C24.926 33.4318 24.9263 33.4321 24.9267 33.4325C24.927 33.4328 24.9274 33.4332 24.9277 33.4335C24.9281 33.4339 24.9284 33.4342 24.9288 33.4346C24.9291 33.4349 24.9295 33.4353 24.9298 33.4356C24.9302 33.4359 24.9305 33.4363 24.9309 33.4366C24.9312 33.437 24.9315 33.4373 24.9319 33.4377C24.9322 33.438 24.9326 33.4384 24.9329 33.4387C24.9333 33.4391 24.9336 33.4394 24.934 33.4398C24.9343 33.4401 24.9347 33.4405 24.935 33.4408C24.9354 33.4412 24.9357 33.4415 24.9361 33.4419C24.9364 33.4422 24.9368 33.4426 24.9371 33.4429C24.9375 33.4433 24.9378 33.4436 24.9382 33.444C24.9385 33.4443 24.9389 33.4447 24.9392 33.445C24.9396 33.4454 24.9399 33.4457 24.9403 33.4461C24.9406 33.4464 24.941 33.4468 24.9413 33.4471C24.9417 33.4475 24.942 33.4478 24.9424 33.4482C24.9427 33.4485 24.9431 33.4489 24.9434 33.4492C24.9438 33.4496 24.9441 33.4499 24.9445 33.4503C24.9448 33.4506 24.9452 33.451 24.9455 33.4513C24.9459 33.4517 24.9462 33.452 24.9466 33.4524C24.9469 33.4527 24.9473 33.4531 24.9476 33.4534C24.948 33.4538 24.9483 33.4541 24.9487 33.4545C24.949 33.4548 24.9494 33.4552 24.9497 33.4555C24.9501 33.4559 24.9504 33.4562 24.9508 33.4566C24.9511 33.4569 24.9515 33.4573 24.9518 33.4576C24.9522 33.458 24.9525 33.4583 24.9529 33.4587C24.9532 33.459 24.9536 33.4594 24.9539 33.4597C24.9543 33.4601 24.9546 33.4604 24.955 33.4608C24.9553 33.4611 24.9557 33.4615 24.956 33.4618C24.9564 33.4622 24.9567 33.4625 24.9571 33.4629C24.9574 33.4632 24.9578 33.4636 24.9581 33.4639C24.9585 33.4643 24.9589 33.4646 24.9592 33.465C24.9596 33.4653 24.9599 33.4657 24.9603 33.466C24.9606 33.4664 24.961 33.4668 24.9613 33.4671C24.9617 33.4675 24.962 33.4678 24.9624 33.4682C24.9627 33.4685 24.9631 33.4689 24.9634 33.4692C24.9638 33.4696 24.9641 33.4699 24.9645 33.4703C24.9648 33.4706 24.9652 33.471 24.9655 33.4713C24.9659 33.4717 24.9663 33.472 24.9666 33.4724C24.967 33.4728 24.9673 33.4731 24.9677 33.4735C24.968 33.4738 24.9684 33.4742 24.9687 33.4745C24.9691 33.4749 24.9694 33.4752 24.9698 33.4756C24.9701 33.4759 24.9705 33.4763 24.9708 33.4766C24.9712 33.477 24.9716 33.4773 24.9719 33.4777C24.9723 33.4781 24.9726 33.4784 24.973 33.4788C24.9733 33.4791 24.9737 33.4795 24.974 33.4798C24.9744 33.4802 24.9747 33.4805 24.9751 33.4809C24.9754 33.4812 24.9758 33.4816 24.9762 33.4819C24.9765 33.4823 24.9769 33.4827 24.9772 33.483C24.9776 33.4834 24.9779 33.4837 24.9783 33.4841C24.9786 33.4844 24.979 33.4848 24.9794 33.4851C24.9797 33.4855 24.9801 33.4859 24.9804 33.4862C24.9808 33.4866 24.9811 33.4869 24.9815 33.4873C24.9818 33.4876 24.9822 33.488 24.9825 33.4883C24.9829 33.4887 24.9833 33.489 24.9836 33.4894C24.984 33.4898 24.9843 33.4901 24.9847 33.4905C24.985 33.4908 24.9854 33.4912 24.9857 33.4915C24.9861 33.4919 24.9865 33.4923 24.9868 33.4926C24.9872 33.493 24.9875 33.4933 24.9879 33.4937C24.9882 33.494 24.9886 33.4944 24.989 33.4947C24.9893 33.4951 24.9897 33.4955 24.99 33.4958C24.9904 33.4962 24.9907 33.4965 24.9911 33.4969C24.9914 33.4972 24.9918 33.4976 24.9922 33.498C24.9925 33.4983 24.9929 33.4987 24.9932 33.499C24.9936 33.4994 24.9939 33.4997 24.9943 33.5001C24.9947 33.5005 24.995 33.5008 24.9954 33.5012C24.9957 33.5015 24.9961 33.5019 24.9964 33.5022C24.9968 33.5026 24.9972 33.503 24.9975 33.5033C24.9979 33.5037 24.9982 33.504 24.9986 33.5044C24.9989 33.5047 24.9993 33.5051 24.9997 33.5055C25 33.5058 25.0004 33.5062 25.0007 33.5065C25.0011 33.5069 25.0015 33.5072 25.0018 33.5076C25.0022 33.508 25.0025 33.5083 25.0029 33.5087C25.0032 33.509 25.0036 33.5094 25.004 33.5098C25.0043 33.5101 25.0047 33.5105 25.005 33.5108C25.0054 33.5112 25.0058 33.5115 25.0061 33.5119C25.0065 33.5123 25.0068 33.5126 25.0072 33.513C25.0075 33.5133 25.0079 33.5137 25.0083 33.5141C25.0086 33.5144 25.009 33.5148 25.0093 33.5151C25.0097 33.5155 25.0101 33.5159 25.0104 33.5162C25.0108 33.5166 25.0111 33.5169 25.0115 33.5173C25.0119 33.5176 25.0122 33.518 25.0126 33.5184C25.0129 33.5187 25.0133 33.5191 25.0137 33.5194C25.014 33.5198 25.0144 33.5202 25.0147 33.5205C25.0151 33.5209 25.0155 33.5212 25.0158 33.5216C25.0162 33.522 25.0165 33.5223 25.0169 33.5227C25.0173 33.523 25.0176 33.5234 25.018 33.5238C25.0183 33.5241 25.0187 33.5245 25.0191 33.5248C25.0194 33.5252 25.0198 33.5256 25.0201 33.5259C25.0205 33.5263 25.0209 33.5267 25.0212 33.527C25.0216 33.5274 25.0219 33.5277 25.0223 33.5281C25.0227 33.5285 25.023 33.5288 25.0234 33.5292C25.0237 33.5295 25.0241 33.5299 25.0245 33.5303C25.0248 33.5306 25.0252 33.531 25.0256 33.5313C25.0259 33.5317 25.0263 33.5321 25.0266 33.5324C25.027 33.5328 25.0274 33.5332 25.0277 33.5335C25.0281 33.5339 25.0284 33.5342 25.0288 33.5346C25.0292 33.535 25.0295 33.5353 25.0299 33.5357C25.0303 33.536 25.0306 33.5364 25.031 33.5368C25.0313 33.5371 25.0317 33.5375 25.0321 33.5379C25.0324 33.5382 25.0328 33.5386 25.0332 33.5389C25.0335 33.5393 25.0339 33.5397 25.0342 33.54C25.0346 33.5404 25.035 33.5408 25.0353 33.5411C25.0357 33.5415 25.0361 33.5418 25.0364 33.5422C25.0368 33.5426 25.0371 33.5429 25.0375 33.5433C25.0379 33.5437 25.0382 33.544 25.0386 33.5444C25.039 33.5448 25.0393 33.5451 25.0397 33.5455C25.0401 33.5458 25.0404 33.5462 25.0408 33.5466C25.0411 33.5469 25.0415 33.5473 25.0419 33.5477C25.0422 33.548 25.0426 33.5484 25.043 33.5488C25.0433 33.5491 25.0437 33.5495 25.0441 33.5498C25.0444 33.5502 25.0448 33.5506 25.0451 33.5509C25.0455 33.5513 25.0459 33.5517 25.0462 33.552C25.0466 33.5524 25.047 33.5528 25.0473 33.5531C25.0477 33.5535 25.0481 33.5539 25.0484 33.5542C25.0488 33.5546 25.0492 33.5549 25.0495 33.5553C25.0499 33.5557 25.0502 33.556 25.0506 33.5564C25.051 33.5568 25.0513 33.5571 25.0517 33.5575C25.0521 33.5579 25.0524 33.5582 25.0528 33.5586C25.0532 33.559 25.0535 33.5593 25.0539 33.5597C25.0543 33.5601 25.0546 33.5604 25.055 33.5608C25.0554 33.5612 25.0557 33.5615 25.0561 33.5619C25.0565 33.5622 25.0568 33.5626 25.0572 33.563C25.0576 33.5633 25.0579 33.5637 25.0583 33.5641C25.0587 33.5644 25.059 33.5648 25.0594 33.5652C25.0598 33.5655 25.0601 33.5659 25.0605 33.5663C25.0609 33.5666 25.0612 33.567 25.0616 33.5674C25.062 33.5677 25.0623 33.5681 25.0627 33.5685C25.063 33.5688 25.0634 33.5692 25.0638 33.5696C25.0641 33.5699 25.0645 33.5703 25.0649 33.5707C25.0652 33.571 25.0656 33.5714 25.066 33.5718C25.0664 33.5721 25.0667 33.5725 25.0671 33.5729C25.0675 33.5732 25.0678 33.5736 25.0682 33.574C25.0686 33.5743 25.0689 33.5747 25.0693 33.5751C25.0697 33.5754 25.07 33.5758 25.0704 33.5762C25.0708 33.5766 25.0711 33.5769 25.0715 33.5773C25.0719 33.5777 25.0722 33.578 25.0726 33.5784C25.073 33.5788 25.0733 33.5791 25.0737 33.5795C25.0741 33.5799 25.0744 33.5802 25.0748 33.5806C25.0752 33.581 25.0755 33.5813 25.0759 33.5817C25.0763 33.5821 25.0766 33.5824 25.077 33.5828C25.0774 33.5832 25.0778 33.5835 25.0781 33.5839C25.0785 33.5843 25.0789 33.5847 25.0792 33.585C25.0796 33.5854 25.08 33.5858 25.0803 33.5861C25.0807 33.5865 25.0811 33.5869 25.0814 33.5872C25.0818 33.5876 25.0822 33.588 25.0826 33.5883C25.0829 33.5887 25.0833 33.5891 25.0837 33.5894C25.084 33.5898 25.0844 33.5902 25.0848 33.5906C25.0851 33.5909 25.0855 33.5913 25.0859 33.5917C25.0862 33.592 25.0866 33.5924 25.087 33.5928C25.0874 33.5931 25.0877 33.5935 25.0881 33.5939C25.0885 33.5943 25.0888 33.5946 25.0892 33.595C25.0896 33.5954 25.0899 33.5957 25.0903 33.5961C25.0907 33.5965 25.0911 33.5968 25.0914 33.5972C25.0918 33.5976 25.0922 33.598 25.0925 33.5983C25.0929 33.5987 25.0933 33.5991 25.0937 33.5994C25.094 33.5998 25.0944 33.6002 25.0948 33.6006C25.0951 33.6009 25.0955 33.6013 25.0959 33.6017C25.0962 33.602 25.0966 33.6024 25.097 33.6028C25.0974 33.6032 25.0977 33.6035 25.0981 33.6039C25.0985 33.6043 25.0988 33.6046 25.0992 33.605C25.0996 33.6054 25.1 33.6058 25.1003 33.6061C25.1007 33.6065 25.1011 33.6069 25.1014 33.6072C25.1018 33.6076 25.1022 33.608 25.1026 33.6084C25.1029 33.6087 25.1033 33.6091 25.1037 33.6095C25.1041 33.6098 25.1044 33.6102 25.1048 33.6106C25.1052 33.611 25.1055 33.6113 25.1059 33.6117C25.1063 33.6121 25.1067 33.6125 25.107 33.6128C25.1074 33.6132 25.1078 33.6136 25.1082 33.6139C25.1085 33.6143 25.1089 33.6147 25.1093 33.6151C25.1096 33.6154 25.11 33.6158 25.1104 33.6162C25.1108 33.6166 25.1111 33.6169 25.1115 33.6173C25.1119 33.6177 25.1123 33.618 25.1126 33.6184C25.113 33.6188 25.1134 33.6192 25.1137 33.6195C25.1141 33.6199 25.1145 33.6203 25.1149 33.6207C25.1152 33.621 25.1156 33.6214 25.116 33.6218L26.5302 32.2076ZM26.0154 31.6928C25.8738 31.5512 25.728 31.3992 25.5778 31.2365L24.1082 32.5931C24.2749 32.7736 24.4392 32.945 24.6012 33.107L26.0154 31.6928ZM24.1359 31.2077L24.0963 31.2473L25.5106 32.6615L25.5502 32.6219L24.1359 31.2077ZM23.9124 32.4083C24.0828 32.7428 24.2363 33.0656 24.3732 33.3768L26.2038 32.5713C26.0504 32.2226 25.8805 31.8656 25.6945 31.5005L23.9124 32.4083ZM24.3833 33.399C24.5256 33.7022 24.6551 34.0044 24.7719 34.3057L26.6367 33.5827C26.5027 33.2372 26.355 32.8927 26.1938 32.5492L24.3833 33.399ZM24.7693 34.2988L26.6799 39.3376L28.5499 38.6285L26.6393 33.5897L24.7693 34.2988ZM26.9078 38.276L25.2744 39.9094L26.6886 41.3236L28.322 39.6902L26.9078 38.276ZM33.9433 32.6546L33.1047 33.1993L33.7773 34.2348L34.6505 33.3617L33.9433 32.6546ZM29.6866 26.1012L28.9795 25.3941L28.4068 25.9667L28.8479 26.6459L29.6866 26.1012ZM31.1418 24.6459L31.9804 24.1012L31.3078 23.0657L30.4347 23.9388L31.1418 24.6459ZM35.3986 31.1994L36.1057 31.9065L36.6783 31.3338L36.2372 30.6547L35.3986 31.1994ZM29.3203 24.8637L29.5164 25.8443L29.543 25.839L29.5693 25.8322L29.3203 24.8637ZM28.2808 24.0421L27.3146 24.2997L27.3198 24.3192L27.3258 24.3385L28.2808 24.0421ZM28.3006 23.4481L27.3519 23.1319L27.3519 23.1319L28.3006 23.4481ZM29.3104 22.4977L29.0613 21.5292L29.0613 21.5292L29.3104 22.4977ZM30.3894 23.5768L29.3904 23.6202L29.3909 23.6318L29.3916 23.6433L30.3894 23.5768ZM34.782 32.1099L30.5252 25.5564L28.8479 26.6459L33.1047 33.1993L34.782 32.1099ZM30.3937 26.8083L31.8489 25.353L30.4347 23.9388L28.9795 25.3941L30.3937 26.8083ZM30.3032 25.1907L34.56 31.7441L36.2372 30.6547L31.9804 24.1012L30.3032 25.1907ZM34.6915 30.4923L33.2362 31.9475L34.6505 33.3617L36.1057 31.9065L34.6915 30.4923ZM29.2665 23.7606C29.1615 23.8656 29.0954 23.889 29.0712 23.8952L29.5693 25.8322C30.0072 25.7196 30.3766 25.479 30.6808 25.1748L29.2665 23.7606ZM29.1242 23.8831C29.1566 23.8767 29.1944 23.8739 29.2349 23.8774C29.2752 23.8809 29.3096 23.8899 29.3359 23.9C29.3865 23.9193 29.3907 23.9357 29.3542 23.8992L27.94 25.3134C28.3131 25.6865 28.8591 25.9758 29.5164 25.8443L29.1242 23.8831ZM29.3542 23.8992C29.2504 23.7955 29.2348 23.7421 29.2359 23.7457L27.3258 24.3385C27.4457 24.7248 27.6742 25.0476 27.94 25.3134L29.3542 23.8992ZM29.2471 23.7844C29.2459 23.7802 29.2457 23.778 29.2456 23.7777C29.2456 23.7774 29.2457 23.7778 29.2456 23.7784C29.2456 23.779 29.2456 23.7786 29.2459 23.7769C29.2462 23.7751 29.2471 23.771 29.2493 23.7643L27.3519 23.1319C27.2253 23.5117 27.2104 23.9092 27.3146 24.2997L29.2471 23.7844ZM29.2493 23.7643C29.2554 23.746 29.2819 23.6831 29.3839 23.581L27.9697 22.1668C27.7022 22.4343 27.4778 22.7542 27.3519 23.1319L29.2493 23.7643ZM29.3839 23.581C29.4662 23.4988 29.5241 23.4753 29.5594 23.4662L29.0613 21.5292C28.6346 21.639 28.2702 21.8663 27.9697 22.1668L29.3839 23.581ZM29.5594 23.4662C29.5262 23.4748 29.485 23.4802 29.4389 23.4782C29.3929 23.4762 29.352 23.4672 29.3191 23.4556C29.2554 23.4331 29.2432 23.4092 29.2764 23.4424L30.6907 22.0282C30.3063 21.6439 29.7356 21.3559 29.0613 21.5292L29.5594 23.4662ZM29.2764 23.4424C29.3939 23.5599 29.3901 23.6144 29.3904 23.6202L31.3885 23.5333C31.3623 22.932 31.088 22.4255 30.6907 22.0282L29.2764 23.4424ZM29.3916 23.6433C29.3906 23.6281 29.3919 23.614 29.394 23.6034C29.396 23.5932 29.3978 23.5916 29.3941 23.5994C29.3858 23.6172 29.3547 23.6725 29.2665 23.7606L30.6808 25.1748C31.095 24.7606 31.4331 24.1981 31.3872 23.5103L29.3916 23.6433ZM36.9289 29.669L36.0903 30.2138L36.7629 31.2493L37.636 30.3761L36.9289 29.669ZM32.6721 23.1156L31.965 22.4085L31.3924 22.9811L31.8335 23.6603L32.6721 23.1156ZM33.7809 22.0068L34.5542 21.3728L33.8544 20.5192L33.0738 21.2997L33.7809 22.0068ZM34.6817 23.1057L33.9084 23.7397L34.6083 24.5934L35.3888 23.8128L34.6817 23.1057ZM34.7213 23.0661L35.4284 23.7732L35.8166 23.385L35.6975 22.8491L34.7213 23.0661ZM34.6025 22.0365L33.6027 22.0169L33.6025 22.0267L33.6025 22.0365L34.6025 22.0365ZM34.7807 21.0862L33.8453 20.7328L33.8453 20.7328L34.7807 21.0862ZM36.2954 19.6904L36.5062 20.6679L36.5244 20.664L36.5424 20.6594L36.2954 19.6904ZM37.2952 19.7596L36.9238 20.6881L36.9349 20.6926L36.9461 20.6967L37.2952 19.7596ZM38.6514 20.8585L39.4476 20.2534L39.4441 20.2488L38.6514 20.8585ZM39.0375 21.403L39.8744 20.8555L39.8696 20.8483L39.0375 21.403ZM41.4728 25.1252L42.1799 25.8323L42.7545 25.2577L42.3096 24.5777L41.4728 25.1252ZM40.0176 26.5804L39.1802 27.1271L39.8536 28.1586L40.7247 27.2875L40.0176 26.5804ZM37.5229 22.7592L36.6726 23.2855L36.679 23.2958L36.6855 23.3059L37.5229 22.7592ZM37.2754 22.3929L38.0754 21.7929L38.0698 21.7855L37.2754 22.3929ZM36.4439 21.7989L36.3726 22.7964L36.4082 22.7989L36.4439 22.7989L36.4439 21.7989ZM35.6024 22.9176L36.6022 22.8994L36.6021 22.8906L36.6018 22.8819L35.6024 22.9176ZM35.8895 24.1352L34.9648 24.516L34.9682 24.5242L34.9718 24.5324L35.8895 24.1352ZM36.622 25.5014L35.7773 26.0367L35.7835 26.0461L36.622 25.5014ZM38.3842 28.2138L39.0913 28.9209L39.664 28.3482L39.2227 27.669L38.3842 28.2138ZM37.7675 29.1243L33.5108 22.5709L31.8335 23.6603L36.0903 30.2138L37.7675 29.1243ZM33.3792 23.8227L34.488 22.7139L33.0738 21.2997L31.965 22.4085L33.3792 23.8227ZM33.0076 22.6408L33.9084 23.7397L35.4551 22.4717L34.5542 21.3728L33.0076 22.6408ZM35.3888 23.8128L35.4284 23.7732L34.0142 22.359L33.9746 22.3986L35.3888 23.8128ZM35.6975 22.8491C35.6325 22.5566 35.6025 22.2863 35.6025 22.0365L33.6025 22.0365C33.6025 22.4467 33.6518 22.8628 33.7452 23.283L35.6975 22.8491ZM35.6024 22.0561C35.6069 21.8267 35.6467 21.6235 35.7162 21.4396L33.8453 20.7328C33.6903 21.1429 33.6114 21.5732 33.6027 22.0169L35.6024 22.0561ZM35.7162 21.4396C35.7727 21.2902 35.8701 21.1339 36.0323 20.9716L34.6181 19.5574C34.2788 19.8968 34.0132 20.2882 33.8453 20.7328L35.7162 21.4396ZM36.0323 20.9716C36.2435 20.7605 36.4029 20.6902 36.5062 20.6679L36.0845 18.7128C35.5147 18.8357 35.0273 19.1482 34.6181 19.5574L36.0323 20.9716ZM36.5424 20.6594C36.6687 20.6272 36.7856 20.6328 36.9238 20.6881L37.6666 18.8312C37.1449 18.6225 36.5952 18.5819 36.0484 18.7213L36.5424 20.6594ZM36.9461 20.6967C37.1193 20.7613 37.3284 20.8903 37.5682 21.13L38.9824 19.7158C38.5885 19.322 38.1443 19.0088 37.6443 18.8226L36.9461 20.6967ZM37.5682 21.13C37.6491 21.211 37.7461 21.3217 37.8588 21.4682L39.4441 20.2488C39.2928 20.0521 39.139 19.8724 38.9824 19.7158L37.5682 21.13ZM37.8553 21.4636C37.9665 21.61 38.0833 21.7744 38.2055 21.9577L39.8696 20.8483C39.7278 20.6356 39.5871 20.437 39.4476 20.2534L37.8553 21.4636ZM38.2007 21.9505L40.636 25.6727L42.3096 24.5777L39.8743 20.8555L38.2007 21.9505ZM40.7657 24.4181L39.3105 25.8733L40.7247 27.2875L42.1799 25.8323L40.7657 24.4181ZM40.8549 26.0337L38.3602 22.2125L36.6855 23.3059L39.1802 27.1271L40.8549 26.0337ZM38.3732 22.2328C38.2752 22.0746 38.176 21.927 38.0754 21.7929L36.4754 22.9929C36.5332 23.07 36.599 23.1666 36.6726 23.2855L38.3732 22.2328ZM38.0698 21.7855C37.9637 21.6468 37.8523 21.516 37.735 21.3987L36.3208 22.8129C36.3619 22.8541 36.4155 22.9147 36.481 23.0004L38.0698 21.7855ZM37.735 21.3987C37.4459 21.1096 37.0107 20.7989 36.4438 20.7989L36.4439 22.7989C36.3461 22.7989 36.2823 22.7709 36.2633 22.7609C36.2485 22.7531 36.2687 22.7608 36.3208 22.8129L37.735 21.3987ZM36.5151 20.8015C35.9576 20.7617 35.5112 21.0204 35.2022 21.3294L36.6164 22.7436C36.6358 22.7242 36.6245 22.7415 36.5778 22.7623C36.5251 22.7856 36.4524 22.8021 36.3726 22.7964L36.5151 20.8015ZM35.2022 21.3294C34.7492 21.7824 34.5821 22.3665 34.603 22.9533L36.6018 22.8819C36.5988 22.7981 36.6101 22.759 36.6136 22.7491C36.6153 22.7441 36.6161 22.7432 36.6153 22.7446C36.6144 22.746 36.6142 22.7458 36.6164 22.7436L35.2022 21.3294ZM34.6026 22.9358C34.612 23.4574 34.7476 23.9886 34.9648 24.516L36.8142 23.7545C36.6617 23.3843 36.6059 23.1037 36.6022 22.8994L34.6026 22.9358ZM34.9718 24.5324C35.1867 25.029 35.4566 25.5305 35.7774 26.0367L37.4667 24.966C37.1935 24.5351 36.975 24.1258 36.8072 23.738L34.9718 24.5324ZM35.7835 26.0461L37.5456 28.7586L39.2227 27.669L37.4606 24.9566L35.7835 26.0461ZM37.677 27.5067L36.2218 28.9619L37.636 30.3761L39.0913 28.9209L37.677 27.5067Z" fill="white" mask="url(#path-2-outside-1_114_1285)"/>
<g clip-path="url(#clip1_114_1285)">
<path d="M9.1566 8.85952C8.59911 9.417 8.59954 10.3206 9.15685 10.8779C9.54352 11.2646 10.0963 11.3824 10.5851 11.2321L12.569 17.9854C12.6592 18.3019 12.285 18.3876 12.285 18.3876L7.77528 19.606C7.71299 19.373 7.59047 19.1512 7.40727 18.968C6.85004 18.4108 5.94627 18.4104 5.38879 18.9679C4.83148 19.5252 4.83029 20.4304 5.3876 20.9877C5.94492 21.545 6.84885 21.5451 7.406 20.988C7.50544 20.8885 7.58614 20.78 7.64961 20.6634L14.4198 24.3566C15.0534 24.7045 15.4242 24.203 15.4242 24.203L19.9622 19.6651L9.1566 8.85952Z" fill="white"/>
<path d="M9.15662 8.85962C9.71393 8.30231 10.6178 8.30248 11.1751 8.85979C11.5618 9.24646 11.6795 9.79928 11.5292 10.2881L18.2825 12.272C18.5991 12.3621 18.6847 11.9881 18.6847 11.9881L19.9031 7.47822C19.6701 7.41585 19.4483 7.29332 19.2651 7.11012C18.7079 6.5529 18.7076 5.64904 19.265 5.09156C19.8224 4.53416 20.7261 4.5345 21.2834 5.09182C21.8408 5.64913 21.8408 6.55306 21.2837 7.11021C21.1842 7.20966 21.0757 7.29035 20.9591 7.35382L24.6524 14.124C25.0002 14.7577 24.4988 15.1285 24.4988 15.1285L19.9625 19.6647L9.15704 8.8592L9.15662 8.85962Z" fill="#FFF2C2"/>
<path d="M20.9337 20.6336C19.487 22.0803 18.0325 23.5225 16.5917 24.9821C16.4303 25.1435 16.3091 25.3855 16.2579 25.6108C16.1647 26.0482 16.41 26.4833 16.8104 26.6817C17.2082 26.8837 17.6861 26.8027 18.0199 26.4689L22.3963 22.0926L20.9355 20.6318L20.9337 20.6336Z" fill="white"/>
<path d="M20.9338 20.6338C22.3809 19.1867 23.8231 17.7321 25.2826 16.2914C25.4439 16.1301 25.6861 16.0088 25.9112 15.9578C26.3486 15.8645 26.7837 16.1098 26.9824 16.51C27.1843 16.9078 27.1034 17.3857 26.7696 17.7195L22.393 22.096L20.9323 20.6353L20.9338 20.6338Z" fill="#FFF2C2"/>
</g>
</g>
<defs>
<linearGradient id="paint0_linear_114_1285" x1="50.9137" y1="12.0401" x2="49.5638" y2="62.0796" gradientUnits="userSpaceOnUse">
<stop stop-color="#FFD337"/>
<stop offset="1" stop-color="#FF8515"/>
</linearGradient>
<linearGradient id="paint1_linear_114_1285" x1="28.8351" y1="20.9216" x2="37.7439" y2="30.1887" gradientUnits="userSpaceOnUse">
<stop stop-color="#FFD337"/>
<stop offset="1" stop-color="#FF8515"/>
</linearGradient>
<clipPath id="clip0_114_1285">
<rect width="74" height="56" fill="white"/>
</clipPath>
<clipPath id="clip1_114_1285">
<rect width="24" height="24" fill="white" transform="translate(-1 15.9705) rotate(-45)"/>
</clipPath>
</defs>
</svg>
