<svg width="120" height="120" viewBox="0 0 120 120" fill="none" xmlns="http://www.w3.org/2000/svg">
<path d="M120 60C120 93.1371 93.1371 120 60 120C26.8629 120 0 93.1371 0 60C0 26.8629 26.8629 0 60 0C93.1371 0 120 26.8629 120 60Z" fill="#E84142"/>
<path fill-rule="evenodd" clip-rule="evenodd" d="M60 116C90.9279 116 116 90.9279 116 60C116 29.0721 90.9279 4 60 4C29.0721 4 4 29.0721 4 60C4 90.9279 29.0721 116 60 116ZM60 120C93.1371 120 120 93.1371 120 60C120 26.8629 93.1371 0 60 0C26.8629 0 0 26.8629 0 60C0 93.1371 26.8629 120 60 120Z" fill="white"/>
<path fill-rule="evenodd" clip-rule="evenodd" d="M43.4703 109.244C42.2054 111.556 40.8889 113.964 39.5886 116.439C45.9601 118.743 52.8333 120 60 120C73.6397 120 86.2164 115.449 96.2942 107.782C92.3446 96.9034 84.2396 78.953 79.645 69.4458C74.3635 58.5173 67.1994 54.5657 62.0182 52.6148C65.2198 52.3748 68.8406 53.8786 72.8894 55.56L72.8894 55.56L72.8933 55.5617L72.8972 55.5633C77.5784 57.5074 82.8315 59.6889 88.6699 59.6889C98.5373 59.6889 99.1641 51.0702 96.94 46.4376C94.716 41.8051 90.4915 39.1925 86.4693 37.9776C86.6382 37.5844 86.8041 37.1676 86.979 36.7281L86.9792 36.7275C88.0195 34.1133 89.3791 30.6965 93.596 26.6562C89.4567 24.7393 79.4041 29.9011 74.2437 33.0998C73.9087 32.0967 74.3189 29.6271 74.7781 26.8623C75.3912 23.1707 76.0916 18.9527 75.2218 17C73.2609 17 70.3746 21.0313 67.4695 25.089C66.0276 27.1028 64.5811 29.1232 63.2408 30.6605C62.0672 27.538 56.5575 22.5296 53.9494 20.4153C54.3568 24.6432 53.9494 29.606 51.5042 33.0998C49.3941 31.9657 44.4134 29.6851 42.4573 30.6605C40.7571 31.5089 40.5624 32.6121 40.0737 35.3811L40.0737 35.3811C40.0002 35.7978 39.9199 36.2523 39.827 36.7492C37.9876 37.6215 35.8075 37.9255 34.043 38.1716C32.3205 38.4118 30.9939 38.5968 30.7666 39.2013C28.6027 45.481 32.9213 52.6148 34.144 54.5657C31.7967 54.5657 22 56.5 16.5 65.079C18.8681 64.066 24.6182 63.4632 29.7427 64.079C33.6271 64.4819 36.2956 67.5915 37.0781 70.909C37.4554 72.5093 36.502 74.6648 35.4137 77.1253L35.4126 77.1278C34.2444 79.7678 32.9213 82.7592 32.9213 85.7892C32.9213 91.6437 38.5452 96.278 42.4573 96.278C46.3695 96.278 48.3941 94.9412 50.5042 90.6677C52.1758 87.5 51.7429 82.5086 50.8457 79.4107C50.5883 78.5225 50.3725 77.7765 50.2817 77.2513C51.9117 79.1214 52.8071 84.4232 51.8291 90.6677C51.1065 95.2808 47.5578 101.77 43.4703 109.244ZM51 60C52.6569 60 54 58.6569 54 57C54 55.3431 52.6569 54 51 54C49.3431 54 48 55.3431 48 57C48 58.6569 49.3431 60 51 60Z" fill="#FDFDFD"/>
</svg>
