<svg width="40" height="32" viewBox="0 0 40 32" fill="none" xmlns="http://www.w3.org/2000/svg">
<path fill-rule="evenodd" clip-rule="evenodd" d="M27.27 29.455C26.2004 30 24.8003 30 22 30H18C15.1997 30 13.7996 30 12.73 29.455C11.7892 28.9757 11.0243 28.2108 10.545 27.27C10 26.2004 10 24.8003 10 22V13C10 10.1997 10 8.79961 10.545 7.73005C11.0243 6.78924 11.7892 6.02433 12.73 5.54497C13.7996 5 15.1997 5 18 5H19.349C20.3274 5 20.8166 5 21.2769 5.11052C21.6851 5.20851 22.0753 5.37012 22.4331 5.58944C22.8368 5.83681 23.1827 6.18271 23.8745 6.87452L28.1255 11.1255C28.8173 11.8173 29.1632 12.1632 29.4106 12.5669C29.6299 12.9247 29.7915 13.3149 29.8895 13.7231C30 14.1834 30 14.6726 30 15.651V22C30 24.8003 30 26.2004 29.455 27.27C28.9757 28.2108 28.2108 28.9757 27.27 29.455ZM27.1893 15H21C20.4477 15 20 14.5523 20 14V7.81066C20 7.14248 20.8079 6.80786 21.2803 7.28033L27.7197 13.7197C28.1921 14.1921 27.8575 15 27.1893 15Z" fill="#E84142"/>
</svg>
